<svg xmlns="http://www.w3.org/2000/svg" xmlns:xlink="http://www.w3.org/1999/xlink" id="Layer_1" x="0" y="0" version="1.1" viewBox="0 0 42 42" xml:space="preserve" style="enable-background:new 0 0 42 42"><style type="text/css">.st0{fill:#b0c3c6}.st5{fill:none;stroke:#b0c3c6;stroke-width:2;stroke-linejoin:round;stroke-miterlimit:10}</style><g><path d="M36,3.4H6c-1.7,0-3,1.3-3,3v21.9c0,1.7,1.3,3,3,3h18.2l6.1,7.3v-7.3H36c1.7,0,3-1.3,3-3V6.4 C39,4.7,37.7,3.4,36,3.4z" class="st5"/><g><path d="M22.2,20.8h-2.7v-1.5c0-0.6,0.1-1.1,0.2-1.4c0.2-0.3,0.5-0.7,1-1.2l1.8-1.8c0.4-0.4,0.6-0.9,0.6-1.5 c0-0.6-0.2-1.1-0.6-1.5c-0.4-0.4-0.9-0.6-1.5-0.6c-0.6,0-1.1,0.2-1.5,0.6c-0.4,0.4-0.6,0.9-0.7,1.5h-2.9c0.2-1.4,0.7-2.5,1.7-3.3 c1-0.8,2.1-1.2,3.6-1.2c1.4,0,2.6,0.4,3.5,1.2c0.9,0.8,1.3,1.9,1.3,3.3c0,1-0.3,1.8-0.8,2.4c-0.3,0.4-0.5,0.7-0.7,0.8 c-0.2,0.2-0.4,0.4-0.6,0.6c-0.3,0.2-0.5,0.5-0.7,0.6c-0.2,0.2-0.3,0.3-0.4,0.5c-0.3,0.4-0.4,0.8-0.4,1.5V20.8z M20.8,26.1 c-0.5,0-0.9-0.2-1.3-0.5c-0.4-0.3-0.6-0.8-0.6-1.2c0-0.5,0.2-0.9,0.5-1.3c0.4-0.4,0.8-0.5,1.3-0.5s0.9,0.2,1.3,0.5 c0.4,0.3,0.6,0.8,0.6,1.2c0,0.5-0.2,0.9-0.5,1.3C21.8,25.9,21.3,26.1,20.8,26.1z" class="st0"/></g></g></svg>