<svg xmlns="http://www.w3.org/2000/svg" xmlns:xlink="http://www.w3.org/1999/xlink" id="Layer_1" x="0" y="0" version="1.1" viewBox="0 0 430 240" xml:space="preserve" style="enable-background:new 0 0 430 240"><style type="text/css">.st3{fill:#00a6e2}.st13{fill:#fff}.st39{fill:#ffd62b}.st73{fill:#333435}</style><g><path d="M179,61.5c12.9-12.9,29.8-19.3,46.7-19.3c16.9,0,33.8,6.4,46.7,19.3l2.1-2.1c-13.5-13.5-31.1-20.2-48.8-20.2 c-17.7,0-35.4,6.7-48.8,20.2L179,61.5L179,61.5z" class="st39"/><path d="M189.6,72.1c9.6-9.6,22.4-14.9,36.1-14.9c13.7,0,26.5,5.3,36.1,14.9l2.1-2.1c-10.2-10.2-23.8-15.8-38.2-15.8 c-14.4,0-28,5.6-38.2,15.8L189.6,72.1L189.6,72.1z" class="st39"/><path d="M271.2,144.5c-4.4,0-8.2-3-9.3-7.1c2.8,1,5.7,1.6,8.8,1.6c4.4,0,7.9-3.5,7.9-7.9s-3.5-7.9-7.9-7.9 c-5.3,0-9.9-4.3-9.9-9.6c0-0.7,0-2.1,0-2.1v-6.1c0-19.4-15.7-35.2-35.2-35.2s-35.2,15.7-35.2,35.2v6.1c0,0,0,1.3,0,2.1 c0,5.3-4.6,9.6-9.9,9.6c-4.4,0-7.9,3.5-7.9,7.9s3.5,7.9,7.9,7.9c3.5,0,6.8-0.7,9.8-2c-1,4.3-4.8,7.5-9.4,7.5 c-4.4,0-7.9,3.5-7.9,7.9c0,4.4,3.5,7.9,7.9,7.9c6.9,0,13.2-2.8,17.8-7.3v10.4c0,4.4,3.5,7.9,7.9,7.9s7.9-3.5,7.9-7.9v-14.8h3.1 v18.7c0,4.4,3.5,7.9,7.9,7.9c4.4,0,7.9-3.5,7.9-7.9v-18.7h3.1v14.8c0,4.4,3.5,7.9,7.9,7.9c4.4,0,7.9-3.5,7.9-7.9v-11.4 c4.7,5.1,11.3,8.2,18.7,8.2c4.4,0,7.9-3.5,7.9-7.9C279.2,148,275.6,144.5,271.2,144.5z" class="st3"/><circle cx="225.7" cy="108.2" r="17.5" class="st13"/><circle cx="225.7" cy="108.2" r="17.5" class="st13"/><g><defs><path id="SVGID_33_" d="M243.3,108.2c0,9.7-7.9,17.5-17.5,17.5c-9.7,0-17.5-7.9-17.5-17.5c0-9.7,7.9-17.5,17.5-17.5 C235.4,90.6,243.3,98.5,243.3,108.2"/></defs><clipPath id="SVGID_3_"><use xlink:href="#SVGID_33_" style="overflow:visible"/></clipPath><path style="clip-path:url(#SVGID_3_);fill:#303030" d="M230.1,115.7c-6.7,0-12.2-5.5-12.2-12.2s5.5-12.2,12.2-12.2 c6.7,0,12.2,5.5,12.2,12.2S236.8,115.7,230.1,115.7z"/></g><g><path d="M122,176.8c-14.5,0-26.3,11.8-26.3,26.3c0,10.5,6.1,19.5,15,23.7c1.3,0.6,2.6,1.1,3.9,1.5 c2.3,0.7,4.8,1.1,7.4,1.1s5-0.4,7.4-1.1c1.4-0.4,2.7-0.9,3.9-1.5c8.9-4.2,15-13.3,15-23.7C148.2,188.6,136.5,176.8,122,176.8z M139.1,220.3c-3.2,3.2-7.4,5.6-12,6.6c-1.7,0.4-3.4,0.6-5.2,0.6c-1.8,0-3.5-0.2-5.2-0.6c-4.6-1-8.8-3.3-12-6.6 c-4.4-4.4-7.1-10.5-7.1-17.2c0-6.7,2.7-12.8,7.1-17.2s10.5-7.1,17.2-7.1c6.7,0,12.8,2.7,17.2,7.1c4.4,4.4,7.1,10.5,7.1,17.2 C146.2,209.8,143.5,215.9,139.1,220.3z" class="st73"/><path d="M124.2,199.5c-0.7-0.4-1.4-0.6-2.2-0.6c-2.4,0-4.3,1.9-4.3,4.3c0,2.4,1.9,4.3,4.3,4.3c2.4,0,4.3-1.9,4.3-4.3 c0-0.8-0.2-1.6-0.6-2.2l10.3-10.3l-1.4-1.4L124.2,199.5z M122,205.4c-1.3,0-2.3-1-2.3-2.3c0-1.3,1-2.3,2.3-2.3 c1.3,0,2.3,1,2.3,2.3C124.2,204.4,123.2,205.4,122,205.4z" class="st73"/><rect width="4.4" height="2" x="100.9" y="202.5" class="st73"/><rect width="4.4" height="2" x="102.5" y="209.3" class="st73" transform="matrix(0.924 -0.3825 0.3825 0.924 -72.4646 56.0296)"/><rect width="2" height="4.4" x="138.2" y="208.1" class="st73" transform="matrix(0.3831 -0.9237 0.9237 0.3831 -108.3517 258.3206)"/><rect width="4.4" height="2" x="138.4" y="202.1" class="st73"/><rect width="4.4" height="2" x="137" y="195" class="st73" transform="matrix(0.9241 -0.3823 0.3823 0.9241 -64.3422 68.0996)"/><rect width="4.4" height="2" x="126.9" y="184.9" class="st73" transform="matrix(0.3832 -0.9237 0.9237 0.3832 -92.0466 233.8868)"/><rect width="2" height="4.4" x="120.8" y="182.7" class="st73"/><rect width="2" height="4.4" x="113.8" y="183.7" class="st73" transform="matrix(0.924 -0.3823 0.3823 0.924 -62.3328 58.0049)"/><rect width="2" height="4.4" x="107.7" y="187.7" class="st73" transform="matrix(0.7074 -0.7068 0.7068 0.7074 -102.413 132.4174)"/><rect width="2" height="4.4" x="103.7" y="193.8" class="st73" transform="matrix(0.383 -0.9237 0.9237 0.383 -116.4383 217.6212)"/><path d="M131.8,212h-19.8c-0.3,0-0.5,0.1-0.7,0.3c-0.2,0.2-0.3,0.4-0.3,0.7v6.6c0,0.3,0.1,0.5,0.3,0.7 c0.2,0.2,0.4,0.3,0.7,0.3h19.8c0.3,0,0.5-0.1,0.7-0.3c0.2-0.2,0.3-0.4,0.3-0.7V213c0-0.3-0.1-0.5-0.3-0.7 C132.4,212.1,132.1,212,131.8,212z M130.8,218.6h-17.8V214h17.8L130.8,218.6z" class="st73"/></g><g><path d="M53.4,94.8c-0.2-0.2-0.4-0.3-0.7-0.3H5.2c-0.3,0-0.5,0.1-0.7,0.3c-0.2,0.2-0.3,0.4-0.3,0.7v47.6 c0,0.3,0.1,0.5,0.3,0.7c0.2,0.2,0.4,0.3,0.7,0.3h47.6c0.3,0,0.5-0.1,0.7-0.3c0.2-0.2,0.3-0.4,0.3-0.7V95.5 C53.7,95.3,53.6,95,53.4,94.8z M6.2,96.5h45.6v9.3H6.2V96.5z M51.7,142.1H6.2v-34.2h45.6V142.1z" class="st73"/><path d="M11.4,97.9c-1.8,0-3.3,1.5-3.3,3.3c0,1.8,1.5,3.3,3.3,3.3c1.8,0,3.3-1.5,3.3-3.3 C14.7,99.4,13.2,97.9,11.4,97.9z M11.4,102.5c-0.7,0-1.3-0.6-1.3-1.3c0-0.7,0.6-1.3,1.3-1.3c0.7,0,1.3,0.6,1.3,1.3 C12.7,101.9,12.1,102.5,11.4,102.5z" class="st73"/><path d="M19.9,97.9c-1.8,0-3.3,1.5-3.3,3.3c0,1.8,1.5,3.3,3.3,3.3c1.8,0,3.3-1.5,3.3-3.3 C23.1,99.4,21.7,97.9,19.9,97.9z M19.9,102.5c-0.7,0-1.3-0.6-1.3-1.3c0-0.7,0.6-1.3,1.3-1.3c0.7,0,1.3,0.6,1.3,1.3 C21.1,101.9,20.6,102.5,19.9,102.5z" class="st73"/><path d="M28.4,97.9c-1.8,0-3.3,1.5-3.3,3.3c0,1.8,1.5,3.3,3.3,3.3c1.8,0,3.3-1.5,3.3-3.3 C31.6,99.4,30.2,97.9,28.4,97.9z M28.4,102.5c-0.7,0-1.3-0.6-1.3-1.3c0-0.7,0.6-1.3,1.3-1.3c0.7,0,1.3,0.6,1.3,1.3 C29.6,101.9,29.1,102.5,28.4,102.5z" class="st73"/><path d="M8.7,120.1l0.7,0.7l0.7,0.7l4.2-4.3l0,0c0.1-0.1,0.2-0.2,0.3-0.4c0.1-0.2,0.2-0.4,0.2-0.7 c0-0.3-0.1-0.6-0.2-0.7c-0.1-0.2-0.2-0.3-0.3-0.4l-4.2-4.3l-1.4,1.4l0.7,0.7l3.3,3.3l-3.3,3.3L8.7,120.1z" class="st73"/><polygon points="14.8 121 14.8 122 23.3 122 23.3 120 14.8 120" class="st73"/></g><path d="M326.6,0h-4.1c-6.5,4.3-10.9,11.8-10.9,20.2c0,0.7,0,1.4,0.1,2.1c-3.7,2-6.2,5.8-6.2,10.3 c0,6.5,5.2,11.7,11.7,11.7c1,0,9.2,0,15.3,0v-1v-1c-6.1,0-14.3,0-15.3,0c-2.7,0-5.1-1.1-6.9-2.8c-1.8-1.8-2.8-4.2-2.8-6.9 c0-3.9,2.3-7.3,5.7-8.8c0.4-0.2,0.6-0.6,0.6-1c-0.1-0.9-0.2-1.7-0.2-2.6c0-6.1,2.5-11.7,6.5-15.7C322,2.6,324.2,1.1,326.6,0 M349.2,0h-4.1c4.8,2.2,8.7,6.1,10.9,10.9c0.1,0.3,0.5,0.5,0.8,0.6c7.9,0.7,14.1,7.3,14.1,15.4c0,4.3-1.7,8.1-4.5,10.9 c-2.8,2.8-6.7,4.5-10.9,4.5c-1,0-6,0-10.9,0v1v1c4.9,0,9.9,0,10.9,0c9.6,0,17.5-7.8,17.5-17.5c0-8.9-6.7-16.3-15.3-17.3 C355.7,5.7,352.7,2.4,349.2,0" class="st73"/><g><polygon points="330.9 32 330.9 32 330.9 32" class="st73"/><path d="M339.5,50.3v-7v-12V25l6.3,6.3l0.7,0.7l0.7-0.7l0.7-0.7l-7.7-7.7c-0.2-0.2-0.4-0.4-0.6-0.5 c-0.2-0.1-0.5-0.3-0.9-0.3c-0.4,0-0.7,0.1-0.9,0.3c0,0,0,0-0.1,0h-0.3v0.2c-0.1,0.1-0.2,0.2-0.3,0.3l-7.7,7.7l0.7,0.7l0.7,0.7 l0.7-0.7l5.8-5.8v5.8v12v8c0,0.3,0.1,0.5,0.3,0.7c0.2,0.2,0.4,0.3,0.7,0.3h18.1v-2H339.5z" class="st73"/></g><path d="M90.2,14.9c0.5-0.1,1-0.1,1.5-0.1c3.4,0,6.7,1.5,8.9,4.5c1.5,2,2.3,4.6,2.3,7.1c0,2-0.5,4-1.5,5.7 c-0.2,0.3-0.2,0.8,0.1,1.1l21.9,29.3c0.2,0.3,0.5,0.4,0.8,0.4c0.1,0,0.2,0,0.3,0l0,0c0.9-0.2,1.8-0.3,2.7-0.3c0,0,0,0,0,0 c3.6,0,7.3,1.7,9.5,4.7c1.5,2,2.2,4.2,2.2,6.5c0,1.6-0.4,3.2-1.1,4.7l-5.5-7.3c-0.6-0.9-1.6-1.4-2.7-1.4c0,0,0,0,0,0 c-0.7,0-1.3,0.2-1.9,0.6v0l-3.8,2.7l0,0c-0.8,0.6-1.3,1.6-1.3,2.5c0,0.8,0.2,1.5,0.7,2.1l5.5,7.3c-0.5,0.1-1,0.1-1.5,0.1 c-3.4,0-6.7-1.5-8.9-4.5c-1.5-2-2.3-4.6-2.3-7.1c0-2,0.5-4,1.5-5.7c0.2-0.3,0.2-0.8-0.1-1.1L95.6,37.5c-0.2-0.3-0.5-0.4-0.8-0.4 c-0.1,0-0.2,0-0.2,0c-0.9,0.2-1.8,0.3-2.7,0.3c0,0,0,0,0,0c-3.6,0-7.3-1.7-9.5-4.7c-1.5-2-2.2-4.2-2.2-6.5c0-1.6,0.4-3.2,1.1-4.7 l5.5,7.3c0.6,0.9,1.6,1.3,2.6,1.3c0,0,0,0,0,0c0.7,0,1.4-0.2,2-0.7l0,0l3.7-2.7c0.9-0.6,1.3-1.6,1.3-2.7c0-0.7-0.2-1.4-0.7-2 L90.2,14.9 M91.7,12.8C91.7,12.8,91.7,12.8,91.7,12.8c-1.2,0-2.3,0.2-3.5,0.5c-0.3,0.1-0.6,0.3-0.7,0.6c-0.1,0.3-0.1,0.7,0.1,0.9 l6.4,8.5c0.2,0.2,0.3,0.5,0.3,0.8c0,0.4-0.2,0.8-0.5,1L90.2,28l0,0c-0.3,0.2-0.5,0.3-0.8,0.3c-0.4,0-0.8-0.2-1-0.5L82,19.2 c-0.2-0.3-0.5-0.4-0.8-0.4c0,0,0,0,0,0c-0.3,0-0.6,0.2-0.8,0.4c-1.4,2.2-2.2,4.6-2.2,7.1c0,2.7,0.9,5.3,2.6,7.7 c2.6,3.5,6.9,5.5,11.1,5.5c0.8,0,1.7-0.1,2.5-0.2l21.1,28.3c-1,1.9-1.5,4-1.5,6.2c0,2.9,0.9,5.8,2.7,8.3c2.6,3.4,6.5,5.3,10.4,5.3 c0,0,0,0,0,0c1.2,0,2.3-0.2,3.5-0.5c0.3-0.1,0.6-0.3,0.7-0.6c0.1-0.3,0.1-0.7-0.1-0.9l-6.4-8.5c-0.2-0.3-0.3-0.6-0.3-0.9 c0-0.4,0.1-0.7,0.4-0.9l3.8-2.7l0,0c0.2-0.2,0.5-0.2,0.7-0.3c0.4,0,0.8,0.2,1.1,0.6l6.4,8.5c0.2,0.3,0.5,0.4,0.8,0.4c0,0,0,0,0,0 c0.3,0,0.6-0.2,0.8-0.4c1.4-2.2,2.2-4.6,2.2-7.1c0-2.7-0.9-5.3-2.6-7.7c-2.6-3.5-6.9-5.5-11.1-5.5c-0.8,0-1.7,0.1-2.5,0.2 l-21.1-28.3c1-1.9,1.5-4,1.5-6.2c0-2.9-0.9-5.9-2.7-8.3C99.6,14.7,95.7,12.8,91.7,12.8" class="st73"/><path d="M408.1,130.3l-12.7-13c-0.2-0.2-0.4-0.3-0.7-0.3h-24.8c-0.3,0-0.5,0.1-0.7,0.3c-0.2,0.2-0.3,0.4-0.3,0.7v49.9 c0,0.3,0.1,0.5,0.3,0.7c0.2,0.2,0.4,0.3,0.7,0.3h37.5c0.3,0,0.5-0.1,0.7-0.3c0.2-0.2,0.3-0.4,0.3-0.7V131 C408.4,130.7,408.3,130.5,408.1,130.3z M405.5,130.4h-10.1v-10.3L405.5,130.4z M406.4,166.9h-35.5V119h22.5v12.5 c0,0.3,0.1,0.5,0.3,0.7c0.2,0.2,0.4,0.3,0.7,0.3h12V166.9z" class="st73"/><path d="M364.7,122.8h-2h0V174c0,0.3,0.1,0.5,0.3,0.7c0.2,0.2,0.4,0.3,0.7,0.3h38.9v-2h-37.9V122.8" class="st73"/><path d="M358.3,129.2h-2v51.2c0,0.3,0.1,0.5,0.3,0.7c0.2,0.2,0.4,0.3,0.7,0.3h38.9v-2h-37.9V129.2" class="st73"/></g></svg>