<svg xmlns="http://www.w3.org/2000/svg" xmlns:xlink="http://www.w3.org/1999/xlink" id="Layer_1" x="0" y="0" version="1.1" viewBox="0 0 430 240" xml:space="preserve" style="enable-background:new 0 0 430 240"><style type="text/css">.st3{fill:#00a6e2}.st13{fill:#fff}.st39{fill:#ffd62b}.st51{fill:#00131f}.st73{fill:#333435}</style><g><polygon points="224.7 107.8 165.8 72.7 231.8 54.1 290.7 89.2" class="st51"/><path d="M271.7,148.4c-4.4,0-8.2-3-9.3-7.1c2.8,1,5.7,1.6,8.8,1.6c4.4,0,7.9-3.5,7.9-7.9s-3.5-7.9-7.9-7.9 c-5.3,0-9.9-4.3-9.9-9.6c0-0.7,0-2.1,0-2.1v-6.1c0-19.4-15.7-35.2-35.2-35.2s-35.2,15.7-35.2,35.2v6.1c0,0,0,1.3,0,2.1 c0,5.3-4.6,9.6-9.9,9.6c-4.4,0-7.9,3.5-7.9,7.9s3.5,7.9,7.9,7.9c3.5,0,6.8-0.7,9.8-2c-1,4.3-4.8,7.5-9.4,7.5 c-4.4,0-7.9,3.5-7.9,7.9c0,4.4,3.5,7.9,7.9,7.9c6.9,0,13.2-2.8,17.8-7.3v10.4c0,4.4,3.5,7.9,7.9,7.9s7.9-3.5,7.9-7.9v-14.8h3.1 v18.7c0,4.4,3.5,7.9,7.9,7.9c4.4,0,7.9-3.5,7.9-7.9v-18.7h3.1v14.8c0,4.4,3.5,7.9,7.9,7.9c4.4,0,7.9-3.5,7.9-7.9V156 c4.7,5.1,11.3,8.2,18.7,8.2c4.4,0,7.9-3.5,7.9-7.9C279.7,151.9,276.1,148.4,271.7,148.4z" class="st3"/><circle cx="225.6" cy="111.7" r="17.5" class="st13"/><circle cx="225.6" cy="111.7" r="17.5" class="st13"/><g><defs><path id="SVGID_49_" d="M243.1,111.7c0,9.7-7.9,17.5-17.5,17.5c-9.7,0-17.5-7.9-17.5-17.5c0-9.7,7.9-17.5,17.5-17.5 C235.3,94.2,243.1,102,243.1,111.7"/></defs><clipPath id="SVGID_3_"><use xlink:href="#SVGID_49_" style="overflow:visible"/></clipPath><path style="clip-path:url(#SVGID_3_);fill:#303030" d="M218.9,120.3c-6.7,0-12.2-5.5-12.2-12.2s5.5-12.2,12.2-12.2 c6.7,0,12.2,5.5,12.2,12.2S225.6,120.3,218.9,120.3z"/></g><path d="M191.6,100.6c0-19.1,15.5-29.7,34.6-29.7s34.6,10.6,34.6,29.7c0,0-9.6-9.8-34.2-9.8 C201.9,90.8,191.6,100.6,191.6,100.6z" class="st51"/><path d="M211.5,56.6c-0.1,0-2.7,0.7-5.5,2.3c-1.4,0.8-2.8,1.8-3.9,3.2c-1.1,1.4-2,3.1-1.9,5.1c0,0.2,0,0.4,0,0.6 l1.5-0.1h-1.5v20.8h3l0-20.8l0-0.1c0-0.1,0-0.2,0-0.3c0-1.2,0.5-2.3,1.3-3.2c1.2-1.5,3.2-2.7,4.9-3.4c0.8-0.4,1.6-0.7,2.2-0.8 c0.3-0.1,0.5-0.2,0.6-0.2l0.2,0l0,0l0,0L211.5,56.6L211.5,56.6z" class="st39"/><polyline points="200.2 88.9 203.4 101.2 206.3 100.4 203.1 88.1" class="st39"/><polyline points="200.1 88.2 198.1 99.2 201.1 99.8 203.1 88.8" class="st39"/><polyline points="200.6 89.6 206.6 95.1 208.6 92.9 202.6 87.4" class="st39"/><polyline points="200.4 87.6 195.2 94.3 197.6 96.1 202.8 89.4" class="st39"/><path d="M36.8,83.1c-13.9,0-25.2,11.3-25.2,25.3c0,13.9,11.3,25.2,25.2,25.2c13.9,0,25.2-11.3,25.2-25.2h-1h-1 c0,6.4-2.6,12.2-6.8,16.4c-4.2,4.2-10,6.8-16.4,6.8c-6.4,0-12.2-2.6-16.4-6.8c-4.2-4.2-6.8-10-6.8-16.4c0-6.4,2.6-12.2,6.8-16.4 c4.2-4.2,10-6.8,16.4-6.8c6.4,0,12.2,2.6,16.4,6.8c4.2,4.2,6.8,10,6.8,16.4h1h1l0,0C62,94.4,50.7,83.1,36.8,83.1" class="st73"/><path d="M31.4,99.2c-0.2,0-0.3,0-0.5,0.1c-0.3,0.2-0.5,0.5-0.5,0.9v8.1h1h1v-6.4l5.6,3.2l5.6,3.2l-5.6,3.2l-5.6,3.2 l0-6.4h-1h-1v8.1c0,0.4,0.2,0.7,0.5,0.9c0.2,0.1,0.3,0.1,0.5,0.1c0.2,0,0.3,0,0.5-0.1l7.1-4.1l7.1-4.1c0.3-0.2,0.5-0.5,0.5-0.9 c0-0.4-0.2-0.7-0.5-0.9l-7.1-4.1l-7.1-4.1C31.7,99.3,31.5,99.2,31.4,99.2" class="st73"/><path d="M143.6,61.3L143.6,61.3L143.6,61.3 M130.2,18.4v-0.7h2v1.9l8.4,8.7h1.7v2h-0.7v30h-31V18.4H130.2 M131.5,16.4 h-21.8c-0.3,0-0.5,0.1-0.7,0.3c-0.2,0.2-0.3,0.4-0.3,0.7v43.8c0,0.3,0.1,0.5,0.3,0.7c0.2,0.2,0.4,0.3,0.7,0.3h33 c0.3,0,0.5-0.1,0.7-0.3c0.2-0.2,0.3-0.4,0.3-0.7h-1v-1v1h1l0,0l0,0V28.9c0-0.3-0.1-0.5-0.3-0.7l-11.1-11.4 C132,16.5,131.8,16.4,131.5,16.4" class="st73"/><path d="M132.2,17.7h-2v0.7v10.8c0,0.3,0.1,0.5,0.3,0.7c0.2,0.2,0.4,0.3,0.7,0.3h10.4h0.7v-2h-1.7h-8.4v-8.7V17.7" class="st73"/><path d="M105.2,21.7h-2v44.9c0,0.3,0.1,0.5,0.3,0.7c0.2,0.2,0.4,0.3,0.7,0.3h34.2v-2l-33.2,0L105.2,21.7" class="st73"/><path d="M99.6,27.3h-2v44.9c0,0.3,0.1,0.5,0.3,0.7c0.2,0.2,0.4,0.3,0.7,0.3h34.2v-2H99.6V27.3" class="st73"/><g><path d="M413.5,48c-0.2-0.2-0.4-0.3-0.7-0.3h-47.6c-0.3,0-0.5,0.1-0.7,0.3c-0.2,0.2-0.3,0.4-0.3,0.7v47.6 c0,0.3,0.1,0.5,0.3,0.7c0.2,0.2,0.4,0.3,0.7,0.3h47.6c0.3,0,0.5-0.1,0.7-0.3c0.2-0.2,0.3-0.4,0.3-0.7V48.7 C413.8,48.5,413.7,48.2,413.5,48z M366.2,49.7h45.6v9.3h-45.6V49.7z M411.8,95.3h-45.6V61.1h45.6V95.3z" class="st73"/><path d="M371.5,51.1c-1.8,0-3.3,1.5-3.3,3.3s1.5,3.3,3.3,3.3c1.8,0,3.3-1.5,3.3-3.3S373.3,51.1,371.5,51.1z M371.5,55.7c-0.7,0-1.3-0.6-1.3-1.3c0-0.7,0.6-1.3,1.3-1.3c0.7,0,1.3,0.6,1.3,1.3C372.7,55.1,372.2,55.7,371.5,55.7z" class="st73"/><path d="M380,51.1c-1.8,0-3.3,1.5-3.3,3.3s1.5,3.3,3.3,3.3c1.8,0,3.3-1.5,3.3-3.3S381.8,51.1,380,51.1z M380,55.7 c-0.7,0-1.3-0.6-1.3-1.3c0-0.7,0.6-1.3,1.3-1.3c0.7,0,1.3,0.6,1.3,1.3C381.2,55.1,380.7,55.7,380,55.7z" class="st73"/><path d="M388.5,51.1c-1.8,0-3.3,1.5-3.3,3.3s1.5,3.3,3.3,3.3c1.8,0,3.3-1.5,3.3-3.3S390.3,51.1,388.5,51.1z M388.5,55.7c-0.7,0-1.3-0.6-1.3-1.3c0-0.7,0.6-1.3,1.3-1.3c0.7,0,1.3,0.6,1.3,1.3C389.7,55.1,389.2,55.7,388.5,55.7z" class="st73"/><path d="M368.8,73.3l0.7,0.7l0.7,0.7l4.2-4.3l0,0c0.1-0.1,0.2-0.2,0.3-0.4c0.1-0.2,0.2-0.4,0.2-0.7 c0-0.3-0.1-0.6-0.2-0.7c-0.1-0.2-0.2-0.3-0.3-0.4l-4.2-4.3l-0.7,0.7l0,0l-0.7,0.7h0l0.7,0.7l3.3,3.3l-3.3,3.3L368.8,73.3z" class="st73"/><polygon points="374.9 74.2 374.9 75.2 383.4 75.2 383.4 73.2 374.9 73.2" class="st73"/></g><path d="M147.6,220l-4.5-8.9c0-0.1,0-0.2-0.1-0.3l-21.4-42.1c-0.1-0.2-0.2-0.3-0.3-0.4l-16.7-11.5 c-0.2-0.1-0.4-0.2-0.6-0.2c-0.2,0-0.3,0-0.5,0.1c-0.3,0.2-0.5,0.5-0.5,0.9l0,19.9c0,0.2,0,0.3,0.1,0.5l21.5,42.1l0,0l2.7,5.3 l0.8,1.5l1.2,2.4c0.5,1.1,1.6,1.7,2.7,1.7c0,0,0,0,0,0c0.5,0,0.9-0.1,1.4-0.3l7.3-3.7l2.9-1.5l2.6-1.3c1.1-0.5,1.7-1.6,1.7-2.7 C147.9,220.9,147.8,220.4,147.6,220z M123.2,176.5l17.5,34.4l-2.7,1.4l-3.7-7l-16.1-31l2.7-4L123.2,176.5z M130.3,216.2L110.7,178 l0.2-0.6l1.2-3.7l3.6,1.2l0.6,0.2l19.8,38.1L130.3,216.2z M109.7,178L109.7,178L109.7,178L109.7,178z M119.1,169.4l-2.5,3.7 l-4.8-1.6c-0.1,0-0.2,0-0.3,0c-0.4,0-0.8,0.3-1,0.7l-1.6,5l-3.9-0.4l0-17L119.1,169.4z M103.9,177.6L103.9,177.6L103.9,177.6 L103.9,177.6z M109.5,186.2l-4.9-7.5l4.4,0.4l15.5,30.3l4,7.7l-2.5,1.3L109.5,186.2z M145.3,222.3l-6.1,3.1l-2.9,1.5l-3.8,1.9 c-0.2,0.1-0.3,0.1-0.5,0.1c-0.4,0-0.8-0.2-0.9-0.6l-0.8-1.5l-0.8-1.5l-2.7-5.3l14.7-7.5l4.2,8.2c0.1,0.2,0.1,0.3,0.1,0.5 C145.9,221.8,145.7,222.1,145.3,222.3z" class="st73"/><path d="M327.9,181l13.4-34.1c0.1-0.4,0.1-0.8-0.2-1.1c-2.2-2.1-3.4-5.2-3.4-8.3c0-1.4,0.3-2.9,0.8-4.2 c1.5-3.9,4.9-6.4,8.8-6.9l-3.4,8.5l0,0c-0.2,0.4-0.2,0.8-0.2,1.2c0,1.3,0.8,2.6,2.1,3.1l0,0l4.3,1.7l0,0c0.4,0.2,0.8,0.2,1.2,0.2 c0,0,0,0,0,0c1.3,0,2.5-0.8,3-2.1l0,0l3.4-8.5c1.7,2,2.7,4.4,2.7,7c0,1.3-0.3,2.7-0.8,4.1c-0.9,2.1-2.4,4-4.3,5.3 c-1.9,1.3-4.2,2.1-6.4,2.1c-0.4,0-0.8,0.3-0.9,0.6l-13.4,34c-0.1,0.4-0.1,0.8,0.2,1.1c2.2,2.1,3.4,5.2,3.4,8.3 c0,1.4-0.3,2.9-0.8,4.2c-1.5,3.9-4.9,6.4-8.8,6.9l3.4-8.4c0.2-0.4,0.3-0.9,0.3-1.3c0-0.6-0.2-1.2-0.5-1.8c-0.3-0.5-0.9-1-1.5-1.2 l0,0l-4.4-1.6v0c-0.4-0.2-0.8-0.2-1.2-0.2c-1.3,0-2.5,0.8-3,2.1l-3.4,8.5c-1.7-2-2.7-4.4-2.7-7c0-1.3,0.3-2.7,0.8-4.1 c0.9-2.1,2.4-4,4.3-5.3c1.9-1.3,4.2-2.1,6.4-2.1C327.4,181.6,327.8,181.4,327.9,181L327.9,181 M348.8,124.3 c-5.3,0-10.1,3.2-12.2,8.3c-0.6,1.6-0.9,3.3-0.9,5c0,3.4,1.2,6.8,3.6,9.3l-12.9,32.8c-2.4,0.2-4.8,1-6.8,2.4c-2.2,1.5-4,3.7-5,6.2 c-0.6,1.6-0.9,3.2-0.9,4.8c0,3.6,1.6,7.1,4.4,9.6c0.2,0.2,0.4,0.2,0.7,0.2c0.1,0,0.2,0,0.2,0c0.3-0.1,0.6-0.3,0.7-0.6l3.9-9.9 c0.2-0.6,0.7-0.9,1.2-0.9c0.1,0,0.3,0,0.5,0.1l0,0l4.4,1.6c0.2,0.1,0.4,0.2,0.5,0.4c0.1,0.2,0.2,0.4,0.2,0.7c0,0.2,0,0.4-0.1,0.6 l-3.9,9.9c-0.1,0.3-0.1,0.7,0.1,0.9c0.2,0.3,0.5,0.4,0.8,0.4c0,0,0,0,0,0c5.3,0,10.1-3.2,12.2-8.3c0.6-1.6,0.9-3.3,0.9-5 c0-3.4-1.2-6.8-3.6-9.3l12.9-32.8c2.4-0.2,4.8-1,6.8-2.4c2.2-1.5,4-3.7,5-6.2c0.6-1.6,0.9-3.2,0.9-4.8c0-3.6-1.6-7.1-4.4-9.6 c-0.2-0.2-0.4-0.2-0.7-0.2c-0.1,0-0.2,0-0.2,0c-0.3,0.1-0.6,0.3-0.7,0.6l-3.9,9.9l0,0c-0.2,0.5-0.7,0.8-1.2,0.8 c-0.2,0-0.3,0-0.5-0.1l0,0l-4.3-1.7l0,0c-0.5-0.2-0.8-0.7-0.8-1.2c0-0.2,0-0.3,0.1-0.5v0l3.9-9.9c0.1-0.3,0.1-0.7-0.1-0.9 C349.4,124.5,349.1,124.3,348.8,124.3" class="st73"/></g></svg>