<svg xmlns="http://www.w3.org/2000/svg" xmlns:xlink="http://www.w3.org/1999/xlink" style="enable-background:new 0 0 16 16" x="0" y="0" version="1.1" viewBox="0 0 16 16" xml:space="preserve"><style type="text/css">.st22{fill:#a3a3a3}</style><g id="Layer_1"><g><path d="M13.2,5.1C13.7,6,14,7,14,8.1c0,1.1-0.3,2.1-0.8,3c-0.5,0.9-1.3,1.6-2.2,2.2c-0.9,0.5-1.9,0.8-3,0.8 c-1.1,0-2.1-0.3-3-0.8c-0.9-0.5-1.6-1.3-2.2-2.2C2.3,10.2,2,9.2,2,8.1C2,7,2.3,6,2.8,5.1C3.3,4.1,4.1,3.4,5,2.9 c0.9-0.5,1.9-0.8,3-0.8c1.1,0,2.1,0.3,3,0.8C11.9,3.4,12.7,4.1,13.2,5.1z M11.7,10.2c0.4-0.7,0.6-1.4,0.6-2.1 c0-0.8-0.2-1.5-0.6-2.1c-0.4-0.7-0.9-1.2-1.5-1.5C9.5,4,8.8,3.8,8,3.8C7.2,3.8,6.5,4,5.9,4.4C5.2,4.8,4.7,5.3,4.3,5.9 C3.9,6.6,3.8,7.3,3.8,8.1c0,0.8,0.2,1.5,0.6,2.1c0.4,0.7,0.9,1.2,1.5,1.5c0.7,0.4,1.4,0.6,2.1,0.6c0.8,0,1.5-0.2,2.1-0.6 C10.8,11.4,11.3,10.9,11.7,10.2z M9,5.3v3.5C9,8.9,9,9,8.9,9S8.8,9.1,8.8,9.1H6.2C6.2,9.1,6.1,9,6.1,9S6,8.9,6,8.8V8.3 c0-0.1,0-0.1,0.1-0.2s0.1-0.1,0.2-0.1H8V5.3c0-0.1,0-0.1,0.1-0.2s0.1-0.1,0.2-0.1h0.5c0.1,0,0.1,0,0.2,0.1S9,5.2,9,5.3z" class="st22"/></g></g></svg>