<svg xmlns="http://www.w3.org/2000/svg" xmlns:xlink="http://www.w3.org/1999/xlink" style="enable-background:new 0 0 16 16" x="0" y="0" version="1.1" viewBox="0 0 16 16" xml:space="preserve"><style type="text/css">.st22{fill:#a3a3a3}</style><g id="Layer_1"><g><path d="M14.1,5.6C14.7,6.3,15,7.2,15,8.1s-0.3,1.7-0.9,2.5s-1.5,1.4-2.5,1.8c-1.1,0.4-2.2,0.7-3.5,0.7 c-0.4,0-0.7,0-1.1-0.1c-1,0.9-2.2,1.5-3.6,1.9C3,15,2.7,15,2.4,15.1c-0.1,0-0.2,0-0.2-0.1C2.1,14.9,2,14.9,2,14.8v0 c0,0,0-0.1,0-0.1c0,0,0-0.1,0-0.1c0,0,0,0,0-0.1c0,0,0-0.1,0-0.1c0,0,0,0,0.1-0.1c0,0,0.1-0.1,0.1-0.1c0,0,0.1-0.1,0.2-0.3 c0.1-0.1,0.2-0.2,0.3-0.3c0.1-0.1,0.1-0.2,0.2-0.3c0.1-0.1,0.2-0.3,0.3-0.4s0.1-0.3,0.2-0.5s0.1-0.4,0.2-0.6 c-0.8-0.5-1.5-1-1.9-1.7C1.2,9.6,1,8.9,1,8.1c0-0.7,0.2-1.3,0.6-1.9C1.9,5.5,2.4,5,3,4.5s1.4-0.8,2.2-1.1C6.1,3.2,7.1,3.1,8,3.1 c1.3,0,2.4,0.2,3.5,0.7C12.6,4.2,13.4,4.8,14.1,5.6z" class="st22"/></g></g></svg>