<svg xmlns="http://www.w3.org/2000/svg" xmlns:xlink="http://www.w3.org/1999/xlink" id="Layer_1" x="0" y="0" version="1.1" viewBox="0 0 59.9 73.2" xml:space="preserve" style="enable-background:new 0 0 59.9 73.2"><style type="text/css">.st3{fill:#00a6e2}.st13{fill:#fff}.st14{clip-path:url(#SVGID_3_);fill:#2f3537}.st15{opacity:.3;fill:none;stroke:#9fb1b3;stroke-width:2;stroke-miterlimit:10}</style><g><g><g><g><g><g><g><circle cx="29.8" cy="35.2" r="18.1" class="st3"/><path d="M6.9,63.5c-2.2,0-4.1-1.8-4.1-4.1s1.8-4.1,4.1-4.1c2.7,0,4.9-2.2,4.9-4.9c0-2.2,1.8-4.1,4.1-4.1 s4.1,1.8,4.1,4.1C20,57.6,14.1,63.5,6.9,63.5z" class="st3"/><path d="M53.2,63.5c-7.2,0-13.1-5.9-13.1-13.1c0-2.2,1.8-4.1,4.1-4.1s4.1,1.8,4.1,4.1c0,2.7,2.2,4.9,4.9,4.9 c2.2,0,4.1,1.8,4.1,4.1S55.5,63.5,53.2,63.5z" class="st3"/><path d="M6.6,52.5c-2.2,0-4.1-1.8-4.1-4.1s1.8-4.1,4.1-4.1c2.7,0,4.9-2.2,4.9-4.9c0-2.2,1.8-4.1,4.1-4.1 s4.1,1.8,4.1,4.1C19.7,46.6,13.9,52.5,6.6,52.5z" class="st3"/><path d="M53,52.5c-7.2,0-13.1-5.9-13.1-13.1c0-2.2,1.8-4.1,4.1-4.1s4.1,1.8,4.1,4.1c0,2.7,2.2,4.9,4.9,4.9 c2.2,0,4.1,1.8,4.1,4.1S55.2,52.5,53,52.5z" class="st3"/><rect width="36.2" height="22.3" x="11.7" y="35.2" class="st3"/><g><path d="M20.1,69.1c-2.2,0-4.1-1.8-4.1-4.1V45.5c0-2.2,1.8-4.1,4.1-4.1s4.1,1.8,4.1,4.1v19.6 C24.2,67.3,22.3,69.1,20.1,69.1z" class="st3"/><path d="M29.8,71.2c-2.2,0-4.1-1.8-4.1-4.1v-23c0-2.2,1.8-4.1,4.1-4.1s4.1,1.8,4.1,4.1v23 C33.9,69.3,32.1,71.2,29.8,71.2z" class="st3"/><path d="M39.5,69.1c-2.2,0-4.1-1.8-4.1-4.1V45.5c0-2.2,1.8-4.1,4.1-4.1s4.1,1.8,4.1,4.1v19.6 C43.6,67.3,41.8,69.1,39.5,69.1z" class="st3"/></g></g><g><circle cx="29.8" cy="36.7" r="9" class="st13"/><g><defs><circle id="SVGID_12_" cx="29.8" cy="36.7" r="9"/></defs><use xlink:href="#SVGID_12_" style="overflow:visible;fill:#fff"/><clipPath id="SVGID_3_"><use xlink:href="#SVGID_12_" style="overflow:visible"/></clipPath><circle cx="33.6" cy="36.4" r="6.3" class="st14"/></g></g></g></g></g></g></g><g><g><line x1="1.3" x2="11.2" y1="19.2" y2="24.6" class="st15"/></g><g><line x1="13.2" x2="19.1" y1="6.7" y2="16.4" class="st15"/></g><g><line x1="29.9" x2="29.9" y1="2.1" y2="13.4" class="st15"/></g><g><line x1="46.6" x2="40.8" y1="6.7" y2="16.4" class="st15"/></g><g><line x1="58.6" x2="48.6" y1="19.2" y2="24.6" class="st15"/></g></g></g></svg>