<svg xmlns="http://www.w3.org/2000/svg" xmlns:xlink="http://www.w3.org/1999/xlink" id="Layer_1" x="0" y="0" version="1.1" viewBox="0 0 100 72" xml:space="preserve" style="enable-background:new 0 0 100 72"><style type="text/css">.st0{fill:#b0c3c6}.st3,.st34{fill:none;stroke:#b0c3c6;stroke-width:2;stroke-miterlimit:10}.st34{fill:#fff}</style><g><g><rect width="18" height="6.6" x="18.5" y="32" class="st0"/><rect width="18" height="6.6" x="18.5" y="32" class="st0" transform="matrix(4.486793e-11 1 -1 4.486793e-11 62.7807 7.813)"/></g><g><polygon points="67.8 30.7 67.8 61 79.6 61 79.7 30.7 73.6 19.3" class="st3"/><path d="M79.6,61l0,6.6c0,0.7-0.6,1.3-1.3,1.3h-9.2c-0.7,0-1.3-0.6-1.3-1.3V61" class="st3"/><polyline points="76.4 61 76.2 32.5 79.6 30.6" class="st3"/><polyline points="67.7 30.6 70.9 32.6 70.9 61" class="st3"/><polyline points="70.9 32.5 73.6 29.9 76.2 32.5" class="st3"/></g><g><g><g><g><path d="M53.3,28.8v24.6c3,1.2,5.1,4.4,5.1,7.8c0,3.4-2.1,6.3-5.1,7.5l0-7.2c0-0.9-0.7-1.5-1.6-1.5h-3.1 c-0.9,0-1.5,0.7-1.5,1.5v7.2c-3.2-1.1-5.3-4-5.3-7.5c0-3.4,2.3-6.6,5.3-7.9V28.8c-3-1.2-5.1-4.4-5.1-7.8c0-3.4,2.1-6.3,5.1-7.5 l0,7.2c0,0.9,0.6,1.6,1.5,1.6l3.1-0.1c0.9,0,1.5-0.7,1.5-1.6l0-7.1c3.2,1.1,5.3,4,5.3,7.5C58.6,24.3,56.3,27.6,53.3,28.8z" class="st34"/></g></g></g></g></g></svg>