<svg xmlns="http://www.w3.org/2000/svg" xmlns:xlink="http://www.w3.org/1999/xlink" id="Layer_1" x="0" y="0" version="1.1" viewBox="0 0 30 30" xml:space="preserve" style="enable-background:new 0 0 30 30"><style type="text/css">.st3{fill:#00a6e2}</style><path d="M28.6,6.6c-1,0.4-2.1,0.7-3.2,0.9c1.2-0.7,2-1.8,2.4-3.1c-1.1,0.6-2.3,1.1-3.5,1.4c-1-1.1-2.5-1.8-4.1-1.8	c-3.1,0-5.6,2.5-5.6,5.6c0,0.4,0,0.9,0.1,1.3C10.2,10.6,6.1,8.4,3.3,5C2.8,5.8,2.6,6.8,2.6,7.8c0,1.9,1,3.6,2.5,4.6	c-0.9,0-1.8-0.3-2.5-0.7c0,0,0,0,0,0.1c0,2.7,1.9,5,4.5,5.5c-0.5,0.1-1,0.2-1.5,0.2c-0.4,0-0.7,0-1-0.1c0.7,2.2,2.8,3.8,5.2,3.9	c-1.9,1.5-4.3,2.4-6.9,2.4c-0.4,0-0.9,0-1.3-0.1C3.9,25.1,6.8,26,10,26c10.2,0,15.9-8.5,15.9-15.9c0-0.2,0-0.5,0-0.7	C26.9,8.7,27.8,7.7,28.6,6.6z" class="st3"/></svg>