<svg xmlns="http://www.w3.org/2000/svg" xmlns:xlink="http://www.w3.org/1999/xlink" id="Layer_1" x="0" y="0" version="1.1" viewBox="0 0 42 42" xml:space="preserve" style="enable-background:new 0 0 42 42"><style type="text/css">.st2{fill:none;stroke:#b0c3c6;stroke-width:2;stroke-miterlimit:10}</style><g><g><path d="M29.2,20.5c4.4,4.4,9.3,9.3,9.3,9.3c0.5,0.5,0.4,1.3-0.1,1.8l-5.8,5.9c-0.5,0.5-1.6,0.7-2.3,0 c0,0-4.5-4.7-8.9-9.1" class="st2"/><path d="M12.7,19.7c-4.5-4.5-9.1-8.9-9.1-8.9c-0.5-0.5-0.8-1.5,0-2.3l5.8-5.8c0.5-0.5,1.4-0.9,2.3,0 c0,0,4.4,4.8,8.9,9.3" class="st2"/><line x1="28.8" x2="33.2" y1="35.4" y2="31" class="st2"/><line x1="25.4" x2="27.4" y1="31.9" y2="29.8" class="st2"/><line x1="5.6" x2="10" y1="12.3" y2="7.9" class="st2"/><line x1="9.1" x2="11.2" y1="15.7" y2="13.6" class="st2"/></g><g><polygon points="6.7 26.7 26.6 6.8 34.3 14.6 14.6 34.5 3 37.9" class="st2"/><path d="M34.3,14.6l4.3-4.3c0.5-0.5,0.5-1.3,0-1.7l-6.1-6.1c-0.5-0.5-1.3-0.5-1.7,0l-4.3,4.3" class="st2"/><polyline points="32.2 12.4 13.4 31 14.4 34.5" class="st2"/><polyline points="6.6 26.7 10 27.4 28.6 8.8" class="st2"/><polyline points="9.9 27.5 9.9 31 13.4 31" class="st2"/></g></g></svg>