<svg xmlns="http://www.w3.org/2000/svg" xmlns:xlink="http://www.w3.org/1999/xlink" id="Layer_1" x="0" y="0" version="1.1" viewBox="0 0 38 36" xml:space="preserve" style="enable-background:new 0 0 38 36"><style type="text/css">.st1{fill:#b0c3c6}.st4{fill:none;stroke:#b0c3c6;stroke-width:2;stroke-miterlimit:10}</style><g><g><path d="M4.7,32.6c-2.2,0-3.1-1.6-2-3.5L17,4.3c1.1-1.9,2.9-1.9,4,0l14.3,24.8c1.1,1.9,0.2,3.5-2,3.5H4.7z" class="st4"/></g><g><path d="M20.8,24c0.3,0.3,0.5,0.7,0.5,1.1c0,0.4-0.2,0.8-0.5,1.1c-0.3,0.3-0.7,0.5-1.1,0.5c-0.4,0-0.8-0.2-1.1-0.5 c-0.3-0.3-0.5-0.7-0.5-1.1c0-0.4,0.2-0.8,0.5-1.1c0.3-0.3,0.7-0.5,1.1-0.5C20.1,23.5,20.5,23.7,20.8,24z M18.6,21.9l-0.4-7.7h3 l-0.4,7.7H18.6z" class="st1"/></g></g></svg>