<svg xmlns="http://www.w3.org/2000/svg" xmlns:xlink="http://www.w3.org/1999/xlink" id="Layer_1" x="0" y="0" version="1.1" viewBox="0 0 42 42" xml:space="preserve" style="enable-background:new 0 0 42 42"><style type="text/css">.st2,.st4{fill:none;stroke:#b0c3c6;stroke-width:2;stroke-miterlimit:10}.st4{stroke-linejoin:round}</style><g><g><g><g><g><g><g><g><path d="M37.4,5.1c-1,0-1.8,0.8-1.8,1.8c0,1.9-1.6,3.5-3.5,3.5c-1.9,0-3.5-1.6-3.5-3.5c0-2.4-2-4.4-4.4-4.4 s-4.4,2-4.4,4.4v4.4" class="st2"/><path d="M12.7,31.8c-3.1-4.4-2-10.4,2.4-13.5" class="st2"/><path d="M25.1,13.8v-2.5h-8.8v2.5c-5.1,1.8-8.8,6.7-8.8,12.4c0,7.3,5.9,13.2,13.2,13.2 c7.3,0,13.2-5.9,13.2-13.2C33.9,20.5,30.2,15.7,25.1,13.8z" class="st4"/></g></g></g></g></g></g></g></g></svg>