<svg xmlns="http://www.w3.org/2000/svg" xmlns:xlink="http://www.w3.org/1999/xlink" id="Layer_1" x="0" y="0" version="1.1" viewBox="0 0 100 72" xml:space="preserve" style="enable-background:new 0 0 100 72"><style type="text/css">.st2,.st4{fill:none;stroke:#b0c3c6;stroke-width:2;stroke-miterlimit:10}.st4{stroke-linejoin:round}.st6{fill:#b0c3c6}.st7{fill:#fff;stroke:#b0c3c6;stroke-width:2;stroke-linejoin:round;stroke-miterlimit:10}</style><g><g><rect width="42" height="42" x="28.8" y="24.1" class="st7"/><line x1="28.3" x2="70.8" y1="34.1" y2="34.1" class="st4"/><g><circle cx="34.3" cy="29.1" r="2" class="st4"/><circle cx="41.8" cy="29.1" r="2" class="st4"/><circle cx="49.3" cy="29.1" r="2" class="st4"/></g><g><path d="M32.6,38.1l3.7,3.8c0.3,0.3,0.3,0.5,0,0.8l-3.7,3.8" class="st2"/></g><line x1="37.3" x2="44.8" y1="46.6" y2="46.6" class="st2"/></g><polygon points="95 61.4 81.2 61.4 83.4 49 97.2 49" class="st6"/><path d="M44.4,1.9H30.5V2c-3.2,4.1-3.2,8.3,0,12.4v0.1h13.9v-0.1C41.3,10.3,41.3,6,44.4,1.9L44.4,1.9z" class="st6"/><polygon points="10.3 27.6 1 19.2 10.3 10.9 19.6 19.2" class="st6"/></g></svg>