<svg xmlns="http://www.w3.org/2000/svg" xmlns:xlink="http://www.w3.org/1999/xlink" id="Layer_1" x="0" y="0" version="1.1" viewBox="0 0 94.7 53.5" xml:space="preserve" style="enable-background:new 0 0 94.7 53.5"><style type="text/css">.st63{fill:#b5f0f5}</style><g><path d="M18.3,38.1c0-11.7-4.1,5.4-9.2,5.4S0,39.8,0,38.1c0-1.6,4.1-5.4,9.2-5.4S18.3,49.8,18.3,38.1" class="st63"/><path d="M42,19.1c0-11.7-4.1,5.4-9.2,5.4s-9.2-3.7-9.2-5.4c0-1.6,4.1-5.4,9.2-5.4S42,30.8,42,19.1" class="st63"/><path d="M65.8,23.8c0-11.7-4.1,5.4-9.2,5.4s-9.2-3.7-9.2-5.4c0-1.6,4.1-5.4,9.2-5.4S65.8,35.4,65.8,23.8" class="st63"/><path d="M94.7,48.1c0-11.7-4.1,5.4-9.2,5.4s-9.2-3.7-9.2-5.4c0-1.6,4.1-5.4,9.2-5.4S94.7,59.8,94.7,48.1" class="st63"/><path d="M86,5.4c0-11.7-4.1,5.4-9.2,5.4c-5.1,0-9.2-3.7-9.2-5.4c0-1.6,4.1-5.4,9.2-5.4C81.9,0,86,17,86,5.4" class="st63"/></g></svg>