<svg xmlns="http://www.w3.org/2000/svg" xmlns:xlink="http://www.w3.org/1999/xlink" id="Layer_1" x="0" y="0" version="1.1" viewBox="0 0 83.8 56" xml:space="preserve" style="enable-background:new 0 0 83.8 56"><style type="text/css">.st63{fill:#b5f0f5}</style><g><g><path d="M18.3,50.6c0-11.7-4.1,5.4-9.2,5.4S0,52.3,0,50.6c0-1.6,4.1-5.4,9.2-5.4S18.3,62.3,18.3,50.6" class="st63"/><path d="M24.9,43.5c0-11.7-4.1,5.4-9.2,5.4s-9.2-3.7-9.2-5.4c0-1.6,4.1-5.4,9.2-5.4S24.9,55.2,24.9,43.5" class="st63"/><path d="M30.2,5.4c0-11.7-4.1,5.4-9.2,5.4S11.9,7,11.9,5.4C11.9,3.7,16,0,21,0S30.2,17,30.2,5.4" class="st63"/><path d="M58,20c0-11.7-4.1,5.4-9.2,5.4s-9.2-3.7-9.2-5.4c0-1.6,4.1-5.4,9.2-5.4S58,31.6,58,20" class="st63"/><path d="M83.8,29.4c0-11.7-4.1,5.4-9.2,5.4s-9.2-3.7-9.2-5.4c0-1.6,4.1-5.4,9.2-5.4S83.8,41.1,83.8,29.4" class="st63"/></g></g></svg>