<svg xmlns="http://www.w3.org/2000/svg" xmlns:xlink="http://www.w3.org/1999/xlink" id="Layer_1" x="0" y="0" version="1.1" viewBox="0 0 30 30" xml:space="preserve" style="enable-background:new 0 0 30 30"><style type="text/css">.st60{fill-rule:evenodd;clip-rule:evenodd;fill:#00131f}</style><g><g><g><path d="M15,1.6C7.4,1.6,1.2,7.7,1.2,15.3c0,6.1,3.9,11.3,9.4,13.1c0.7,0.1,0.9-0.3,0.9-0.7c0-0.3,0-1.2,0-2.3 c-3.8,0.8-4.6-1.8-4.6-1.8c-0.6-1.6-1.5-2-1.5-2c-1.3-0.9,0.1-0.8,0.1-0.8c1.4,0.1,2.1,1.4,2.1,1.4c1.2,2.1,3.2,1.5,4,1.1 c0.1-0.9,0.5-1.5,0.9-1.8c-3.1-0.3-6.3-1.5-6.3-6.8c0-1.5,0.5-2.7,1.4-3.7C7.5,10.6,7,9.2,7.8,7.3c0,0,1.2-0.4,3.8,1.4 c1.1-0.3,2.3-0.5,3.5-0.5c1.2,0,2.4,0.2,3.5,0.5c2.6-1.8,3.8-1.4,3.8-1.4c0.8,1.9,0.3,3.3,0.1,3.6c0.9,1,1.4,2.2,1.4,3.7 c0,5.3-3.2,6.5-6.3,6.8c0.5,0.4,0.9,1.3,0.9,2.6c0,1.8,0,3.3,0,3.8c0,0.4,0.2,0.8,0.9,0.7c5.5-1.8,9.4-7,9.4-13.1 C28.8,7.7,22.6,1.6,15,1.6" class="st60"/></g></g></g></svg>