<svg xmlns="http://www.w3.org/2000/svg" xmlns:xlink="http://www.w3.org/1999/xlink" id="Layer_1" x="0" y="0" version="1.1" viewBox="0 0 430 240" xml:space="preserve" style="enable-background:new 0 0 430 240"><style type="text/css">.st1{fill:#b0c3c6}.st3{fill:#00a6e2}.st9{fill:#303030}.st13{fill:#fff}.st39{fill:#ffd62b}.st47{fill:#f5c81f}.st48{fill:#f49f90}.st49{fill:#f3eede}.st73{fill:#333435}.st91{fill:#1a1a1b}</style><g><path d="M138.9,64.9l-2.2-9.7c0-0.1,0-0.2,0-0.3L126.5,9c0-0.2-0.1-0.3-0.2-0.4L118.8,0h-2.7l7.8,8.9l-3.3,2.9 l-4.3-2.7C116.2,9,116,9,115.8,9c-0.3,0-0.7,0.2-0.8,0.5l-2.8,4.4l-3.7-1.3L111.7,0h-2.1l-3.3,12.9c0,0.2,0,0.3,0,0.5l10.4,46l0,0 l2.3,10c0.3,1.4,1.6,2.4,3,2.4c0.2,0,0.5,0,0.7-0.1l14-3.2c1.4-0.3,2.4-1.6,2.4-3C139,65.3,139,65.1,138.9,64.9z M125.4,10.3 l0.8,6.6l8.3,37.5l-3,0.7l-1.8-7.7l-7.9-33.9L125.4,10.3z M130.8,56.2L130.8,56.2l-1,0.2L130.8,56.2z M114.1,14.6l2-3.2l3.2,2 l0.5,0.3l9.7,41.7l-6.5,1.5l-9.4-41.8L114.1,14.6z M110.5,22.8l-2.8-8.5l4.2,1.5l7.4,33.1l1.9,8.5l-2.7,0.6L110.5,22.8z M136.2,66.6l-14,3.2l-0.2,0c-0.5,0-0.9-0.3-1-0.8l-2-9l16.1-3.6l2,9l0,0.2C137,66,136.7,66.4,136.2,66.6z" class="st73"/><path d="M271.2,154.7c-4.4,0-8.2-3-9.3-7.1c2.7,1,5.7,1.6,8.8,1.6c4.4,0,7.9-3.5,7.9-7.9s-3.5-7.9-7.9-7.9 c-5.3,0-9.6-4.3-9.6-9.6c0-0.7-0.1-1.4-0.3-2.1v-6.1c0-19.4-15.7-35.1-35.1-35.1c-19.4,0-35.1,15.7-35.1,35.1v6.1 c-0.2,0.7-0.3,1.3-0.3,2.1c0,5.3-4.3,9.6-9.6,9.6c-4.4,0-7.9,3.5-7.9,7.9s3.5,7.9,7.9,7.9c3.5,0,6.8-0.7,9.8-2 c-1,4.3-4.8,7.5-9.4,7.5c-4.4,0-7.9,3.5-7.9,7.9c0,4.4,3.5,7.9,7.9,7.9c6.9,0,13.2-2.8,17.8-7.3v10.4c0,4.4,3.5,7.9,7.9,7.9 c4.4,0,7.9-3.5,7.9-7.9v-14.8h3.1v18.7c0,4.4,3.5,7.9,7.9,7.9s7.9-3.5,7.9-7.9v-18.7h3.1v14.8c0,4.4,3.5,7.9,7.9,7.9 c4.4,0,7.9-3.5,7.9-7.9v-11.3c4.6,5,11.3,8.2,18.7,8.2c4.4,0,7.9-3.5,7.9-7.9C279.2,158.2,275.6,154.7,271.2,154.7z" class="st3"/><circle cx="225.8" cy="118.4" r="17.5" class="st13"/><circle cx="225.8" cy="118.4" r="17.5" class="st13"/><g><defs><path id="SVGID_47_" d="M225.8,135.9c-9.7,0-17.5-7.9-17.5-17.5s7.9-17.5,17.5-17.5c9.7,0,17.5,7.9,17.5,17.5 S235.5,135.9,225.8,135.9"/></defs><clipPath id="SVGID_3_"><use xlink:href="#SVGID_47_" style="overflow:visible"/></clipPath><path style="clip-path:url(#SVGID_3_);fill:#303030" d="M208.2,123.7c0-6.7,5.5-12.2,12.2-12.2c6.7,0,12.2,5.5,12.2,12.2 c0,6.7-5.5,12.2-12.2,12.2C213.7,135.9,208.2,130.5,208.2,123.7z"/></g><ellipse cx="225.4" cy="94.5" class="st47" rx="41.8" ry="11.3"/><path d="M264.4,92.8h-77.8c-3.2,0-1.7-2.6-1.7-5.7v-1.2c0,0,5.7-36.3,40.6-36.3c34.9,0,40.6,36.3,40.6,36.3v1.2 C266.2,90.2,267.6,92.8,264.4,92.8z" class="st39"/><rect width="12.9" height="28.8" x="219" y="48.4" class="st47"/><polygon points="251.6 70.2 238.7 70.2 238.7 50.4 251.6 54.4" class="st47"/><polygon points="212.7 70.2 199.8 70.2 199.8 54.4 212.7 50.4" class="st47"/><rect width="12.9" height="28.8" x="219" y="46.4" class="st39"/><polygon points="251.6 68.2 238.7 68.2 238.7 48.4 251.6 52.4" class="st39"/><polygon points="212.7 68.2 199.8 68.2 199.8 52.4 212.7 48.4" class="st39"/><path d="M184.8,167.7L174,153.2c1.2-2,1.1-4.9-0.4-6.9c-1.5-2-4-2.8-6.4-2.2l3.2,4.2c0.4,0.5,0.3,1.2-0.2,1.6l-1.8,1.4 c-0.5,0.4-1.2,0.3-1.6-0.2l-3.2-4.2c-1.4,2.1-1.4,4.7,0.2,6.8c1.5,2,4.3,2.9,6.6,2.3l10.8,14.5c-1.2,2-1.1,4.9,0.4,6.9 c1.5,2,4,2.8,6.4,2.2l-3.2-4.2c-0.4-0.5-0.3-1.2,0.2-1.6l1.9-1.3c0.5-0.4,1.2-0.3,1.6,0.3l3.2,4.2c1.4-2.1,1.4-4.7-0.2-6.8 C189.9,168.1,187.2,167.1,184.8,167.7z" class="st1"/><polygon points="283.4 119.2 277.7 144.5 267.7 142.3 273.4 117 280.7 108.6" class="st39"/><path d="M267.8,142.3l-1.2,5.5c-0.1,0.6,0.2,1.2,0.9,1.4l7.7,1.7c0.6,0.1,1.2-0.2,1.4-0.9l1.2-5.5L267.8,142.3z" class="st48"/><polygon points="273.5 116.9 276 119.1 270.5 142.9 267.8 142.3" class="st47"/><polyline points="275.1 143.9 280.4 120.2 283.4 119.2 278.5 142.9" class="st47"/><polygon points="276 119.1 278.7 117.4 280.4 120.1 283.4 119.2 280.7 108.6 273.5 116.9" class="st49"/><ellipse cx="176.4" cy="165.3" class="st3" rx="3.4" ry="6" transform="matrix(0.849 -0.5284 0.5284 0.849 -60.6973 118.1443)"/><ellipse cx="277.7" cy="142.3" class="st3" rx="6" ry="3.4" transform="matrix(0.2148 -0.9766 0.9766 0.2148 79.0814 382.8934)"/><polygon points="277.6 112.6 282 113.3 281 108.6" class="st9"/><g><path d="M398.1,35c-0.2-0.2-0.4-0.3-0.7-0.3h-52c-0.3,0-0.5,0.1-0.7,0.3c-0.2,0.2-0.3,0.4-0.3,0.7v52 c0,0.3,0.1,0.5,0.3,0.7c0.2,0.2,0.4,0.3,0.7,0.3h52c0.3,0,0.5-0.1,0.7-0.3c0.2-0.2,0.3-0.4,0.3-0.7v-52 C398.4,35.5,398.3,35.2,398.1,35z M346.3,36.7h50v10.4h-50V36.7z M396.4,86.8h-50l0-37.6h50V86.8z" class="st73"/><path d="M352.1,38.5c-1.9,0-3.5,1.6-3.5,3.5c0,1.9,1.6,3.5,3.5,3.5s3.5-1.6,3.5-3.5C355.6,40,354.1,38.5,352.1,38.5z M352.1,43.4c-0.8,0-1.5-0.7-1.5-1.5c0-0.8,0.7-1.5,1.5-1.5c0.8,0,1.5,0.7,1.5,1.5C353.6,42.8,353,43.4,352.1,43.4z" class="st73"/><path d="M361.4,38.5c-1.9,0-3.5,1.6-3.5,3.5c0,1.9,1.6,3.5,3.5,3.5c1.9,0,3.5-1.6,3.5-3.5 C364.9,40,363.4,38.5,361.4,38.5z M361.4,43.4c-0.8,0-1.5-0.7-1.5-1.5c0-0.8,0.7-1.5,1.5-1.5c0.8,0,1.5,0.7,1.5,1.5 C362.9,42.8,362.3,43.4,361.4,43.4z" class="st73"/><path d="M370.7,38.5c-1.9,0-3.5,1.6-3.5,3.5c0,1.9,1.6,3.5,3.5,3.5s3.5-1.6,3.5-3.5C374.2,40,372.6,38.5,370.7,38.5z M370.7,43.4c-0.8,0-1.5-0.7-1.5-1.5c0-0.8,0.7-1.5,1.5-1.5c0.8,0,1.5,0.7,1.5,1.5C372.2,42.8,371.5,43.4,370.7,43.4z" class="st73"/><path d="M349.3,62.7l1.4,1.4l4.6-4.7c0.1-0.1,0.2-0.2,0.4-0.4c0.1-0.2,0.2-0.4,0.2-0.8c0-0.3-0.1-0.6-0.2-0.8 c-0.1-0.2-0.2-0.3-0.4-0.4l-4.6-4.7l-0.7,0.7l-0.7,0.7l0.7,0.7l3.7,3.7l-3.7,3.7L349.3,62.7z" class="st73"/><polygon points="355.9 63.6 355.9 64.6 365.2 64.6 365.2 62.6 355.9 62.6" class="st73"/></g><path d="M333.4,167.5c-13.1,0-23.6,10.6-23.6,23.6c0,0.7,0,1.4,0.1,2.1c-3.6,1.9-6,5.7-6,10.1 c0,6.3,5.1,11.5,11.5,11.5c1,0,9,0,15,0v-1v-1c-5.9,0-13.9,0-15,0c-2.6,0-5-1.1-6.7-2.8c-1.7-1.7-2.8-4.1-2.8-6.7 c0-3.8,2.3-7.1,5.5-8.6c0.4-0.2,0.6-0.6,0.6-1c-0.1-0.8-0.2-1.7-0.2-2.6c0-6,2.4-11.4,6.3-15.3c3.9-3.9,9.3-6.3,15.3-6.3 c0,0,0,0,0,0c8.7,0,16.2,5.2,19.7,12.6c0.1,0.3,0.5,0.5,0.8,0.6c7.7,0.7,13.7,7.1,13.7,15c0,4.2-1.7,7.9-4.4,10.7 c-2.7,2.7-6.5,4.4-10.7,4.4c-1,0-5.9,0-10.6,0v1v1c4.8,0,9.6,0,10.6,0c9.4,0,17.1-7.6,17.1-17.1c0-8.7-6.5-15.9-15-16.9 C350.8,172.9,342.8,167.5,333.4,167.5" class="st73"/><g><polygon points="328.6 202.8 328.6 202.8 328.6 202.8" class="st73"/><path d="M337,220.6v-6.8v-11.8v-6.1l6.1,6.1l0.7,0.7l0.7-0.7l0.7-0.7l-7.5-7.5c-0.2-0.2-0.4-0.4-0.6-0.5 c-0.2-0.1-0.5-0.3-0.9-0.3c0,0,0,0,0,0s0,0,0,0c-0.4,0-0.7,0.1-0.9,0.3c0,0-0.1,0-0.1,0.1H335v0.2c-0.1,0.1-0.2,0.2-0.3,0.2 l-7.5,7.5l0.7,0.7l0.7,0.7l0.7-0.7l5.7-5.6v5.6v11.8v7.8c0,0.3,0.1,0.5,0.3,0.7c0.2,0.2,0.4,0.3,0.7,0.3h17.7v-2H337z" class="st73"/></g><g><path d="M65.8,75L37.5,56.2c-0.5-0.5-1.2-0.7-1.8-0.7c-0.7,0-1.3,0.2-1.8,0.7L5.5,75c-0.3,0.2-0.4,0.5-0.4,0.8v32 c0,1.5,1.2,2.7,2.7,2.7h55.8c1.5,0,2.7-1.2,2.7-2.7v-32C66.3,75.5,66.1,75.1,65.8,75z M64.3,107.3l-22-16l22-13.3V107.3z M35,57.8 l0.2-0.1c0.1-0.1,0.3-0.2,0.5-0.2c0.2,0,0.4,0.1,0.5,0.2l0.2,0.1L63.7,76L40.5,90l-3-2.2v0c-0.3-0.2-0.6-0.3-0.9-0.4 c-0.3-0.1-0.6-0.1-0.9-0.1c-0.3,0-0.6,0-0.9,0.1c-0.3,0.1-0.6,0.2-0.9,0.4L31,89.9l-23.4-14L35,57.8z M7.1,77.9l22.2,13.2 L7.1,107.2V77.9z M8.5,108.6l26.5-19.2l0,0c0,0,0.1,0,0.2-0.1c0.1,0,0.3-0.1,0.4-0.1c0.1,0,0.3,0,0.4,0.1c0.1,0,0.2,0.1,0.2,0.1 l0,0l26.5,19.2L8.5,108.6z" class="st73"/><polygon points="55.7 76.4 15.7 76.4 15.7 77.4 15.7 78.4 55.7 78.4" class="st73"/></g><g><path d="M92.6,157.9c-4.2,0-7.6,3.4-7.6,7.6c0,4.2,3.4,7.6,7.6,7.6c4.2,0,7.6-3.4,7.6-7.6 C100.2,161.3,96.8,157.9,92.6,157.9z M96.6,169.5c-1,1-2.4,1.6-4,1.6c-1.6,0-3-0.6-4-1.6c-1-1-1.6-2.4-1.6-4c0-1.6,0.6-3,1.6-4 c1-1,2.4-1.6,4-1.6c1.6,0,2.9,0.6,4,1.6c1,1,1.6,2.4,1.6,4C98.2,167,97.6,168.4,96.6,169.5z" class="st73"/><path d="M92.6,148.6c-9.3,0-16.9,7.6-16.9,16.9c0,2.9,1.1,6.1,2.6,9.4c2.3,4.9,5.7,10,8.5,13.8 c2.1,2.9,3.9,5.1,4.7,6h2.3c1.1-1.3,4.4-5.3,7.6-10.2c2-3,4-6.3,5.5-9.6c1.5-3.3,2.6-6.5,2.6-9.4 C109.5,156.2,102,148.6,92.6,148.6z M105.1,174.1c-2.2,4.7-5.5,9.7-8.3,13.5c-1.4,1.9-2.6,3.5-3.5,4.6c-0.3,0.3-0.5,0.6-0.7,0.8 c-1.4-1.8-4.7-5.9-7.8-10.7c-1.8-2.8-3.6-5.9-4.9-8.8c-1.3-2.9-2.1-5.8-2.1-8c0-4.1,1.7-7.8,4.4-10.5c2.7-2.7,6.4-4.4,10.5-4.4 c4.1,0,7.8,1.7,10.5,4.4c2.7,2.7,4.4,6.4,4.4,10.5C107.5,167.9,106.6,170.9,105.1,174.1z" class="st73"/></g><path d="M103.3,194.8h-9.5c-0.3,0.3-0.4,0.5-0.4,0.5c-0.2,0.2-0.5,0.3-0.8,0.3c-0.3,0-0.6-0.1-0.8-0.3 c0,0-0.1-0.2-0.4-0.5H82v2h21.2V194.8" class="st73"/><path d="M93.8,194.8h-2.3c0.3,0.3,0.4,0.5,0.4,0.5c0.2,0.2,0.5,0.3,0.8,0.3c0.3,0,0.6-0.1,0.8-0.3 C93.4,195.2,93.5,195.1,93.8,194.8" class="st91"/></g></svg>