<svg xmlns="http://www.w3.org/2000/svg" xmlns:xlink="http://www.w3.org/1999/xlink" style="enable-background:new 0 0 70 70" x="0" y="0" version="1.1" viewBox="0 0 70 70" xml:space="preserve"><style type="text/css">.st27{fill:#b5c3c6}</style><g id="Layer_1"><g><g><g><g><path d="M14.6,46.7c-0.1-0.1-2.8-2.6-5-6.1c-3-4.7-3.6-9-1.9-12.4c4.1-8.1,12.6-7.4,12.7-7.4l-0.1,0.8 c-0.3,0-8-0.7-11.9,6.9c-3.8,7.5,6.6,17.5,6.7,17.6L14.6,46.7z" class="st27"/><circle cx="19.8" cy="21.2" r="5.1" class="st27"/><path d="M40.6,54.5c-1.2,0-13.5-0.3-19.7-11.2c-4-7-4.1-12.7-3.6-16.2c0.6-3.9,2.1-6.1,2.2-6.2l0.7,0.5 c0,0-1.5,2.2-2.1,5.9c-0.5,3.4-0.3,8.9,3.5,15.6c6.2,11,18.9,10.8,19,10.8L40.6,54.5C40.6,54.5,40.6,54.5,40.6,54.5z" class="st27"/><path d="M61.2,34.2c0-0.1-3.2-5.6-12.5-12c-10.1-7-22.8-3.2-22.9-3.1l-0.2-0.8c0.1,0,13.2-3.9,23.6,3.2 c9.4,6.5,12.6,12,12.7,12.2L61.2,34.2z" class="st27"/></g><circle cx="40.2" cy="14.3" r="5.1" class="st27"/><g><path d="M9.2,43.8c0-0.1-1.9-13.2,10.4-21.2C32.9,13.9,40,14.9,40.3,15l-0.1,0.8c0,0-1.8-0.3-5.1,0.5 c-3.1,0.7-8.2,2.5-15,6.9C8.3,31,10,43.5,10.1,43.6L9.2,43.8z" class="st27"/><path d="M59.9,36c0,0-0.8-4.7-6.2-11.5c-5.4-6.8-13.5-8.7-13.6-8.7l0.2-0.8c0.3,0.1,8.5,2,14.1,9 c5.6,7,6.3,11.7,6.3,11.9L59.9,36z" class="st27"/><g><circle cx="60" cy="35.9" r="5.1" class="st27"/><rect width="25.6" height=".8" x="36.8" y="46" class="st27" transform="matrix(0.7024 -0.7118 0.7118 0.7024 -18.2687 49.1666)"/><path d="M24.3,60.7c-1.6,0-3.2-0.1-4.8-0.5c-2.7-0.6-4.7-1.9-5.9-3.9c-2.5-4.1-1.1-9.7-1.1-9.9l0.8,0.2 c0,0.1-1.4,5.4,1,9.3c1.1,1.8,2.9,3,5.4,3.5c9.4,2,20.7-3.3,20.8-3.3l0.4,0.8C40.4,57.1,32.5,60.7,24.3,60.7z" class="st27"/><circle cx="41" cy="55.7" r="5.1" class="st27"/></g></g><path d="M41,52.5l-0.8-0.3c0-0.1,3-8.6,3-18.2c0-9.7-3.4-18.3-3.4-18.4l0.8-0.3c0,0.1,3.5,8.9,3.5,18.7 C44.1,43.8,41.1,52.4,41,52.5z" class="st27"/><path d="M29.1,48.2C22,48.2,16.3,47,16.2,47l0.2-0.8c0.1,0,13.3,2.7,24.5-0.2c11.2-2.9,17.5-9,17.5-9l0.6,0.6 c-0.1,0.1-1.6,1.6-4.6,3.5c-2.8,1.8-7.3,4.2-13.3,5.7C37.1,47.9,32.9,48.2,29.1,48.2z" class="st27"/></g><circle cx="12.2" cy="46.3" r="5.1" class="st27"/></g><path d="M57.3,32.2c0.1,0.1,1.8,3.4,2.7,7.4c1.3,5.4,0.5,9.7-2.2,12.4c-6.5,6.3-15.6,5.5-15.7,5.4l0.3-0.8 c0.3,0.1,8.7,0.6,14.8-5.3c6.1-5.9-0.6-18.7-0.6-18.8L57.3,32.2z" class="st27"/></g></g></svg>