<svg xmlns="http://www.w3.org/2000/svg" xmlns:xlink="http://www.w3.org/1999/xlink" style="enable-background:new 0 0 16 16" x="0" y="0" version="1.1" viewBox="0 0 16 16" xml:space="preserve"><style type="text/css">.st22{fill:#a3a3a3}</style><g id="Layer_1"><g><path d="M15.5,11.3c0,0.8-0.3,1.5-0.9,2.1s-1.3,0.9-2.1,0.9H4c-1,0-1.8-0.3-2.5-1c-0.7-0.7-1-1.5-1-2.5 C0.5,10.2,0.7,9.5,1,9c0.4-0.6,0.9-1,1.5-1.3c0-0.2,0-0.3,0-0.3c0-1.1,0.4-2,1.2-2.8s1.7-1.2,2.8-1.2c0.8,0,1.6,0.2,2.2,0.7 c0.7,0.5,1.2,1.1,1.5,1.8c0.4-0.3,0.8-0.5,1.3-0.5c0.6,0,1,0.2,1.4,0.6s0.6,0.9,0.6,1.4c0,0.4-0.1,0.8-0.3,1.1 c0.7,0.2,1.2,0.5,1.7,1.1C15.3,10,15.5,10.6,15.5,11.3z M10.5,9.1c0-0.1,0-0.1-0.1-0.2L7.7,6.2c0,0-0.1-0.1-0.2-0.1 c-0.1,0-0.1,0-0.2,0.1L4.6,8.9C4.5,9,4.5,9,4.5,9.1c0,0.1,0,0.1,0.1,0.2s0.1,0.1,0.2,0.1h1.8v2.8c0,0.1,0,0.1,0.1,0.2 c0,0,0.1,0.1,0.2,0.1h1.5c0.1,0,0.1,0,0.2-0.1c0,0,0.1-0.1,0.1-0.2V9.3h1.8c0.1,0,0.1,0,0.2-0.1C10.5,9.2,10.5,9.2,10.5,9.1z" class="st22"/></g></g></svg>