<svg xmlns="http://www.w3.org/2000/svg" xmlns:xlink="http://www.w3.org/1999/xlink" id="Layer_1" x="0" y="0" version="1.1" viewBox="0 0 68 80" xml:space="preserve" style="enable-background:new 0 0 68 80"><style type="text/css">.st1{fill:#00a6e2}.st2,.st7{stroke:#b0c3c6;stroke-width:2;stroke-miterlimit:10}.st2{fill:none}.st7{stroke-linejoin:round}.st12,.st7{fill:#fff}.st13{clip-path:url(#SVGID_2_);fill:#2f3537}.st14{opacity:.3;fill:none;stroke:#9fb1b3;stroke-width:2;stroke-miterlimit:10}</style><g><g><g><g><g><g><g><circle cx="34.3" cy="40.5" r="19.7" class="st1"/><path d="M59.5,59.2c-7.8,0-14.2-6.4-14.2-14.2c0-2.4,2-4.4,4.4-4.4c2.4,0,4.4,2,4.4,4.4c0,3,2.4,5.4,5.4,5.4 c2.4,0,4.4,2,4.4,4.4C63.9,57.3,61.9,59.2,59.5,59.2z" class="st1"/><path d="M8.5,59.2c7.8,0,14.2-6.4,14.2-14.2c0-2.4-2-4.4-4.4-4.4s-4.4,2-4.4,4.4c0,3-2.4,5.4-5.4,5.4 c-2.4,0-4.4,2-4.4,4.4C4.1,57.3,6.1,59.2,8.5,59.2z" class="st1"/><rect width="39.3" height="24.2" x="14.6" y="40.5" class="st1"/></g><g><circle cx="34.3" cy="42.1" r="9.8" class="st12"/><g><defs><circle id="SVGID_11_" cx="34.3" cy="42.1" r="9.8"/></defs><use xlink:href="#SVGID_11_" style="overflow:visible;fill:#fff"/><clipPath id="SVGID_2_"><use xlink:href="#SVGID_11_" style="overflow:visible"/></clipPath><circle cx="38.4" cy="41.8" r="6.8" class="st13"/></g></g></g></g></g></g></g><g><g><rect width="49.7" height="31.3" x="8.2" y="44.4" class="st7"/><g><line x1="57.5" x2="8.4" y1="75.7" y2="75.7" class="st2"/><line x1="57.5" x2="37.9" y1="75.6" y2="61.6" class="st2"/><line x1="8.9" x2="28.4" y1="75.6" y2="61.6" class="st2"/><path d="M33.2,67.3c-1.2,0-2.4-0.4-3.3-1.2l-11.3-9l4.5-5.3l10,8l9.1-7.3l4.8,5.1l-10.6,8.5 C35.6,66.9,34.5,67.3,33.2,67.3z" class="st12"/><path d="M57.4,44.9L34.2,63.4c-0.5,0.5-1.5,0.5-2,0L9.1,44.9" class="st2"/></g><g><g><line x1="21.4" x2="25.1" y1="6.3" y2="14.9" class="st14"/></g><g><line x1="34.3" x2="34.3" y1="3.6" y2="12.9" class="st14"/></g><g><line x1="47.3" x2="43.5" y1="6.3" y2="14.9" class="st14"/></g></g></g></g><circle cx="58.8" cy="54.8" r="4.4" class="st1"/><circle cx="9.1" cy="54.8" r="4.4" class="st1"/></g></svg>