<svg xmlns="http://www.w3.org/2000/svg" xmlns:xlink="http://www.w3.org/1999/xlink" id="Layer_1" x="0" y="0" version="1.1" viewBox="0 0 85 70" xml:space="preserve" style="enable-background:new 0 0 85 70"><style type="text/css">.st1{fill:#00a6e2}.st6{fill:#b0c3c6}.st14,.st15{fill:none}.st14,.st15,.st16,.st17{stroke-miterlimit:10}.st14{opacity:.3;stroke:#9fb1b3;stroke-width:2}.st15,.st16{stroke:#fff}.st16{fill:#fff}.st17{fill:none;stroke:#303030}</style><g><g><g><line x1="49.5" x2="52.2" y1="2.1" y2="11" class="st14"/></g><g><line x1="63.8" x2="61.5" y1="1.8" y2="10.8" class="st14"/></g><g><line x1="76.3" x2="69.7" y1="8.8" y2="15.4" class="st14"/></g><g><line x1="83.4" x2="74.3" y1="21.3" y2="23.6" class="st14"/></g><g><line x1="83.1" x2="74.1" y1="35.6" y2="32.9" class="st14"/></g></g><g><path d="M59.5,23.3v36.8c0,3.5-2.8,6.3-6.3,6.3c-3.5,0-6.3-2.8-6.3-6.3V23.3" class="st15"/><path d="M55.3,23.3v36.8c0,1.4-1,2.1-2.1,2.1c-1,0-2.1-0.6-2.1-2.1V23.3" class="st15"/><g><path d="M8.8,66.4c-3.5,0-6.3-2.8-6.3-6.3V23.3H47v36.8c0,3.5,2.8,6.3,6.3,6.3H8.8z" class="st16"/><rect width="13.9" height="12.5" x="8.1" y="38.6" class="st6"/><rect width="33.4" height="5.6" x="8.1" y="27.5" class="st1"/><line x1="8.1" x2="22" y1="55.3" y2="55.3" class="st17"/><line x1="8.1" x2="22" y1="59.4" y2="59.4" class="st17"/></g><line x1="27.5" x2="41.4" y1="38.6" y2="38.6" class="st17"/><line x1="27.5" x2="41.4" y1="42.8" y2="42.8" class="st17"/><line x1="27.5" x2="41.4" y1="46.9" y2="46.9" class="st17"/><line x1="27.5" x2="41.4" y1="51.1" y2="51.1" class="st17"/><line x1="27.5" x2="41.4" y1="55.3" y2="55.3" class="st17"/><line x1="27.5" x2="41.4" y1="59.4" y2="59.4" class="st17"/></g></g></svg>