<svg xmlns="http://www.w3.org/2000/svg" xmlns:svg="http://www.w3.org/2000/svg" xmlns:xlink="http://www.w3.org/1999/xlink" id="Layer_1" width="97.9" height="59.2" x="0" y="0" version="1.1" viewBox="0 0 97.9 59.2" xml:space="preserve"><metadata id="metadata81"/><style id="style2" type="text/css">.st3{fill:#00a6e2}.st13{fill:#fff}.st14{clip-path:url(#SVGID_3_);fill:#2f3537}</style><g id="g5807" transform="matrix(-0.83637342,0,0,0.83637342,23.353349,-6.709841)"><path id="path5184" d="M 14.683262,54.937716 7.6964468,37.157837 c -0.05214,-0.208562 -0.05214,-0.417124 0.104281,-0.573546 C 8.947817,35.489343 9.573502,33.87299 9.573502,32.256637 9.573502,31.526671 9.417081,30.744565 9.156378,30.06674 8.374272,28.033264 6.6014978,26.729754 4.5680218,26.469052 l 1.772774,4.431935 v 0 c 0.104281,0.208561 0.104281,0.417123 0.104281,0.625684 0,0.677826 -0.417123,1.355651 -1.094948,1.616353 v 0 l -2.242038,0.886387 v 0 c -0.208562,0.104281 -0.417123,0.104281 -0.625685,0.104281 0,0 0,0 0,0 -0.677825,0 -1.30351,-0.417123 -1.564212,-1.094949 v 0 l -1.772774,-4.431935 c -0.886387,1.042809 -1.407791,2.294179 -1.407791,3.649829 0,0.677826 0.156421,1.407791 0.417123,2.137757 0.469264,1.094949 1.25137,2.085616 2.242038,2.763442 0.990667,0.677825 2.189897,1.094948 3.336986,1.094948 0.208562,0 0.417123,0.156422 0.469264,0.312843 l 6.9868142,17.727739 c 0.05214,0.208561 0.05214,0.417123 -0.10428,0.573544 -1.147089,1.094949 -1.772774,2.711302 -1.772774,4.327654 0,0.729966 0.156421,1.512072 0.417123,2.189897 0.782106,2.033476 2.55488,3.336987 4.588356,3.597689 l -1.772774,-4.379795 c -0.104281,-0.208561 -0.156421,-0.469263 -0.156421,-0.677825 0,-0.312842 0.104281,-0.625685 0.260702,-0.938527 0.156421,-0.260702 0.469264,-0.521404 0.782106,-0.625685 v 0 l 2.294178,-0.834247 v 0 c 0.208562,-0.104281 0.417123,-0.104281 0.625685,-0.104281 0.677825,0 1.30351,0.417124 1.564212,1.094949 l 1.772774,4.431935 c 0.886387,-1.042807 1.407791,-2.294178 1.407791,-3.649829 0,-0.677825 -0.156421,-1.407791 -0.417123,-2.137757 -0.469264,-1.094948 -1.25137,-2.085616 -2.242038,-2.763441 -0.990667,-0.677826 -2.189897,-1.094949 -3.336986,-1.094949 -0.156421,-0.05214 -0.364983,-0.156421 -0.417123,-0.364983 v 0 M 3.7859158,25.374104 c 2.763442,0 5.2661822,1.668493 6.3611302,4.327654 0.312843,0.834247 0.469264,1.720634 0.469264,2.607021 0,1.772774 -0.625685,3.545547 -1.877055,4.849058 l 6.726113,17.102053 c 1.25137,0.104281 2.50274,0.521404 3.545548,1.25137 1.147089,0.782106 2.085616,1.929195 2.60702,3.232706 0.312843,0.834246 0.469264,1.668492 0.469264,2.50274 0,1.877054 -0.834247,3.701969 -2.294178,5.005478 -0.104281,0.104281 -0.208562,0.104281 -0.364983,0.104281 -0.05214,0 -0.104281,0 -0.104281,0 -0.156421,-0.05214 -0.312842,-0.15642 -0.364983,-0.312843 l -2.033476,-5.1619 c -0.10428,-0.312843 -0.364982,-0.469264 -0.625684,-0.469264 -0.05214,0 -0.156422,0 -0.260702,0.05214 v 0 l -2.294179,0.834246 c -0.10428,0.05214 -0.208561,0.104281 -0.260702,0.208562 -0.05214,0.104281 -0.10428,0.208561 -0.10428,0.364983 0,0.10428 0,0.208561 0.05214,0.312842 l 2.033476,5.161902 c 0.05214,0.15642 0.05214,0.364981 -0.05214,0.469262 -0.104281,0.156421 -0.260702,0.208562 -0.417124,0.208562 0,0 0,0 0,0 -2.763441,0 -5.266181,-1.668492 -6.36113,-4.327653 -0.312842,-0.834248 -0.469263,-1.720634 -0.469263,-2.607022 0,-1.772773 0.625685,-3.545546 1.877054,-4.849057 L 3.3166528,39.139171 c -1.25137,-0.104281 -2.50274,-0.521404 -3.545548,-1.25137 -1.147089,-0.782106 -2.085617,-1.929195 -2.607021,-3.232705 -0.312842,-0.834247 -0.469263,-1.668493 -0.469263,-2.502741 0,-1.877054 0.834246,-3.701969 2.294178,-5.005479 0.10428,-0.104281 0.208561,-0.104281 0.364983,-0.104281 0.05214,0 0.10428,0 0.10428,0 0.156422,0.05214 0.312843,0.156421 0.364983,0.312843 l 2.033476,5.161901 v 0 c 0.104281,0.260702 0.364983,0.417124 0.625685,0.417124 0.104281,0 0.156421,0 0.260702,-0.05214 v 0 l 2.242038,-0.886387 v 0 c 0.260702,-0.104281 0.417123,-0.364984 0.417123,-0.625685 0,-0.104281 0,-0.156422 -0.05214,-0.260702 v 0 l -2.033476,-5.161901 c -0.05214,-0.156422 -0.05214,-0.364983 0.05214,-0.469264 0.104281,0 0.260702,-0.104281 0.417123,-0.104281" class="st73" style="fill:#333435;stroke-width:.52140409"/></g><g id="g6105" transform="translate(1.0601708)"><circle id="circle4" cx="47.79" cy="21.2" r="18.1" class="st3" style="fill:#00a6e2"/><path id="path6" d="m 24.88983,49.500011 c -2.2,0 -4.1,-1.8 -4.1,-4.1 0,-2.3 1.8,-4.1 4.1,-4.1 2.7,0 4.9,-2.2 4.9,-4.9 0,-2.2 1.8,-4.1 4.1,-4.1 2.3,0 4.1,1.8 4.1,4.1 0,7.2 -5.9,13.1 -13.1,13.1 z" class="st3" style="fill:#00a6e2"/><path id="path8" d="m 71.18983,49.500011 c -7.2,0 -13.1,-5.9 -13.1,-13.1 0,-2.2 1.8,-4.1 4.1,-4.1 2.3,0 4.1,1.8 4.1,4.1 0,2.7 2.2,4.9 4.9,4.9 2.2,0 4.1,1.8 4.1,4.1 0,2.3 -1.8,4.1 -4.1,4.1 z" class="st3" style="fill:#00a6e2"/><path id="path10" d="m 24.58983,38.500011 c -2.2,0 -4.1,-1.8 -4.1,-4.1 0,-2.3 1.8,-4.1 4.1,-4.1 2.7,0 4.9,-2.2 4.9,-4.9 0,-2.2 1.8,-4.1 4.1,-4.1 2.3,0 4.1,1.8 4.1,4.1 0,7.2 -5.8,13.1 -13.1,13.1 z" class="st3" style="fill:#00a6e2"/><path id="path12" d="m 70.98983,38.500011 c -7.2,0 -13.1,-5.9 -13.1,-13.1 0,-2.2 1.8,-4.1 4.1,-4.1 2.3,0 4.1,1.8 4.1,4.1 0,2.7 2.2,4.9 4.9,4.9 2.2,0 4.1,1.8 4.1,4.1 0,2.3 -1.9,4.1 -4.1,4.1 z" class="st3" style="fill:#00a6e2"/><rect id="rect14" width="36.2" height="22.3" x="29.69" y="21.2" class="st3" style="fill:#00a6e2"/><g id="g22" transform="translate(17.98983,-13.999989)"><path id="path16" d="M 20.1,69.1 C 17.9,69.1 16,67.3 16,65 V 45.5 c 0,-2.2 1.8,-4.1 4.1,-4.1 2.3,0 4.1,1.8 4.1,4.1 v 19.6 c 0,2.2 -1.9,4 -4.1,4 z" class="st3" style="fill:#00a6e2"/><path id="path18" d="m 29.8,71.2 c -2.2,0 -4.1,-1.8 -4.1,-4.1 v -23 c 0,-2.2 1.8,-4.1 4.1,-4.1 2.3,0 4.1,1.8 4.1,4.1 v 23 c 0,2.2 -1.8,4.1 -4.1,4.1 z" class="st3" style="fill:#00a6e2"/><path id="path20" d="m 39.5,69.1 c -2.2,0 -4.1,-1.8 -4.1,-4.1 V 45.5 c 0,-2.2 1.8,-4.1 4.1,-4.1 2.3,0 4.1,1.8 4.1,4.1 v 19.6 c 0,2.2 -1.8,4 -4.1,4 z" class="st3" style="fill:#00a6e2"/></g><circle id="circle26" cx="47.79" cy="22.7" r="9" class="st13" style="fill:#fff"/><g id="g38" transform="rotate(45,55.694396,51.415652)"><defs id="defs29"><circle id="SVGID_12_" cx="29.8" cy="36.7" r="9"/></defs><use style="overflow:visible;fill:#fff" id="use31" width="100%" height="100%" x="0" y="0" xlink:href="#SVGID_12_"/><clipPath id="SVGID_3_"><use style="overflow:visible" id="use33" width="100%" height="100%" x="0" y="0" xlink:href="#SVGID_12_"/></clipPath><circle id="circle36" cx="33.6" cy="36.4" r="6.3" class="st14" clip-path="url(#SVGID_3_)" style="fill:#2f3537"/></g><path style="fill:#e6e6e6;stroke:#000;stroke-width:.00334173;stroke-linecap:butt;stroke-linejoin:miter;stroke-miterlimit:4;stroke-dasharray:none;stroke-opacity:1" id="path6038" d="m 56.206351,28.579086 -2.288953,5.221419 -0.0015,0.0039 c -0.141679,0.318891 -0.215206,0.663852 -0.215875,1.012798 0,1.38419 1.122107,2.506297 2.506297,2.506297 1.384188,0 2.506295,-1.122107 2.506295,-2.506297 -9.38e-4,-0.336242 -0.06952,-0.668858 -0.201678,-0.978043 z"/></g></svg>