<svg xmlns="http://www.w3.org/2000/svg" xmlns:xlink="http://www.w3.org/1999/xlink" id="Layer_1" x="0" y="0" version="1.1" viewBox="0 0 160 160" xml:space="preserve" style="enable-background:new 0 0 160 160"><style type="text/css">.st3{fill:#00a6e2}.st13{fill:#fff}.st37{fill:#003147}.st52{fill:none;stroke:#fff;stroke-width:2;stroke-miterlimit:10}</style><g><g><g><path d="M48.9,38.6c0,0-19.9-1.9-29.5,17.2s16.3,43.4,16.3,43.4" class="st52"/><circle cx="47.5" cy="38.5" r="12.4" class="st37"/><g><g><g><g><path d="M126.2,113.6c-4.4,0-8.2-3-9.3-7.1c2.8,1,5.7,1.6,8.8,1.6c4.4,0,7.9-3.5,7.9-7.9c0-4.4-3.5-7.9-7.9-7.9 c-5.3,0-9.9-4.3-9.9-9.6c0-0.7,0-2.1,0-2.1v-6.1c0-19.4-15.7-35.2-35.2-35.2c-19.4,0-35.2,15.7-35.2,35.2v6.1 c0,0,0,1.3,0,2.1c0,5.3-4.6,9.6-9.9,9.6c-4.4,0-7.9,3.5-7.9,7.9c0,4.4,3.5,7.9,7.9,7.9c3.5,0,6.8-0.7,9.8-2 c-1,4.3-4.8,7.5-9.4,7.5c-4.4,0-7.9,3.5-7.9,7.9c0,4.4,3.5,7.9,7.9,7.9c6.9,0,13.2-2.8,17.8-7.3v10.4c0,4.4,3.5,7.9,7.9,7.9 c4.4,0,7.9-3.5,7.9-7.9v-14.8h3.1v18.7c0,4.4,3.5,7.9,7.9,7.9c4.4,0,7.9-3.5,7.9-7.9v-18.7h3.1v14.8c0,4.4,3.5,7.9,7.9,7.9 c4.4,0,7.9-3.5,7.9-7.9v-11.4c4.7,5.1,11.3,8.2,18.7,8.2c4.4,0,7.9-3.5,7.9-7.9C134.1,117.1,130.5,113.6,126.2,113.6z" class="st3"/><g><circle cx="80.8" cy="77.3" r="17.5" class="st13"/><g><defs><circle id="SVGID_21_" cx="80.8" cy="77.3" r="17.5"/></defs><use xlink:href="#SVGID_21_" style="overflow:visible;fill:#fff"/><clipPath id="SVGID_2_"><use xlink:href="#SVGID_21_" style="overflow:visible"/></clipPath><path style="clip-path:url(#SVGID_2_);fill:#303030" d="M86.1,94.8c-6.7,0-12.2-5.5-12.2-12.2c0-6.7,5.5-12.2,12.2-12.2 c6.7,0,12.2,5.5,12.2,12.2C98.3,89.3,92.8,94.8,86.1,94.8z"/></g></g></g></g></g></g><path d="M47.5,38.5c0,0-14.7,20.9,3.4,52.8c15.5,27.2,46.6,26.4,46.6,26.4" class="st52"/><path d="M61.6,32.4c0,0,31-9.5,56,7.7c22.8,15.6,30.3,29.1,30.3,29.1" class="st52"/></g><circle cx="96.5" cy="21.9" r="12.4" class="st37"/><g><path d="M23,92.7c0,0-4.8-30.9,24.5-50c31.9-20.8,49.1-18,49.1-18" class="st52"/><path d="M144.9,73.9c0,0-1.7-11.3-15-28S96.6,24.6,96.6,24.6" class="st52"/><g><circle cx="144.2" cy="73.9" r="12.4" class="st37"/><line x1="97.6" x2="140.9" y1="121.1" y2="77.3" class="st52"/><path d="M30.9,99.6c0,0-7.1,27.1,16,31.9c23.1,4.9,50.7-8,50.7-8" class="st52"/><circle cx="98.3" cy="121.5" r="12.4" class="st37"/></g></g><path d="M96.6,24.6c0,0,8.3,20.9,8.3,44.6s-7.3,44.2-7.3,44.2" class="st52"/><path d="M38.9,99.6c0,0,31.9,6.6,59.4-0.4c27.5-7,42.6-21.9,42.6-21.9" class="st52"/></g><circle cx="29.1" cy="98.8" r="12.4" class="st37"/></g></svg>