<svg xmlns="http://www.w3.org/2000/svg" xmlns:xlink="http://www.w3.org/1999/xlink" id="Layer_1" x="0" y="0" version="1.1" viewBox="0 0 160 160" xml:space="preserve" style="enable-background:new 0 0 160 160"><style type="text/css">.st0{fill:none;stroke:#ffd62b;stroke-width:3;stroke-miterlimit:10}.st3{fill:#00a6e2}.st13{fill:#fff}</style><g><g><path d="M32.8,29.5c26.3-26.3,69.2-26.3,95.5,0" class="st0"/><path d="M43.4,40.1c9.9-9.9,23.1-15.4,37.2-15.4s27.2,5.5,37.2,15.4" class="st0"/></g><g><g><g><g><path d="M126.2,113.6c-4.4,0-8.2-3-9.3-7.1c2.8,1,5.7,1.6,8.8,1.6c4.4,0,7.9-3.5,7.9-7.9c0-4.4-3.5-7.9-7.9-7.9 c-5.3,0-9.9-4.3-9.9-9.6c0-0.7,0-2.1,0-2.1v-6.1c0-19.4-15.7-35.2-35.2-35.2c-19.4,0-35.2,15.7-35.2,35.2v6.1c0,0,0,1.3,0,2.1 c0,5.3-4.6,9.6-9.9,9.6c-4.4,0-7.9,3.5-7.9,7.9c0,4.4,3.5,7.9,7.9,7.9c3.5,0,6.8-0.7,9.8-2c-1,4.3-4.8,7.5-9.4,7.5 c-4.4,0-7.9,3.5-7.9,7.9c0,4.4,3.5,7.9,7.9,7.9c6.9,0,13.2-2.8,17.8-7.3v10.4c0,4.4,3.5,7.9,7.9,7.9c4.4,0,7.9-3.5,7.9-7.9 v-14.8h3.1v18.7c0,4.4,3.5,7.9,7.9,7.9c4.4,0,7.9-3.5,7.9-7.9v-18.7h3.1v14.8c0,4.4,3.5,7.9,7.9,7.9c4.4,0,7.9-3.5,7.9-7.9 v-11.4c4.7,5.1,11.3,8.2,18.7,8.2c4.4,0,7.9-3.5,7.9-7.9C134.1,117.1,130.5,113.6,126.2,113.6z" class="st3"/><g><circle cx="80.7" cy="77.3" r="17.5" class="st13"/><g><defs><circle id="SVGID_23_" cx="80.7" cy="77.3" r="17.5"/></defs><use xlink:href="#SVGID_23_" style="overflow:visible;fill:#fff"/><clipPath id="SVGID_2_"><use xlink:href="#SVGID_23_" style="overflow:visible"/></clipPath><path style="clip-path:url(#SVGID_2_);fill:#303030" d="M85,84.8c-6.7,0-12.2-5.5-12.2-12.2c0-6.7,5.5-12.2,12.2-12.2 c6.7,0,12.2,5.5,12.2,12.2C97.2,79.3,91.7,84.8,85,84.8z"/></g></g></g></g></g></g></g></svg>