<svg xmlns="http://www.w3.org/2000/svg" xmlns:xlink="http://www.w3.org/1999/xlink" id="Layer_1" x="0" y="0" version="1.1" viewBox="0 0 24 18" xml:space="preserve" style="enable-background:new 0 0 24 18"><style type="text/css">.st3{fill:#00a6e2}</style><g><path d="M9.1,7.8c1.3,0.9,2,2.1,2,3.7c0,1.6-0.5,2.8-1.4,3.8c-0.9,0.9-2.1,1.4-3.5,1.4c-1.4,0-2.6-0.4-3.5-1.3 s-1.4-2-1.4-3.4s0.4-2.8,1.3-4.1l4.4-6.4h4.9L9.1,7.8z M20.2,7.8c1.3,0.9,2,2.1,2,3.7c0,1.6-0.5,2.8-1.4,3.8 c-0.9,0.9-2.1,1.4-3.5,1.4c-1.4,0-2.6-0.4-3.5-1.3s-1.4-2-1.4-3.4s0.4-2.8,1.3-4.1l4.4-6.4h4.9L20.2,7.8z" class="st3"/></g></svg>