<svg xmlns="http://www.w3.org/2000/svg" xmlns:xlink="http://www.w3.org/1999/xlink" id="Layer_1" x="0" y="0" version="1.1" viewBox="0 0 42 42" xml:space="preserve" style="enable-background:new 0 0 42 42"><style type="text/css">.st2,.st4{fill:none;stroke:#b0c3c6;stroke-width:2;stroke-miterlimit:10}.st4{stroke-linejoin:round}</style><g><g><g><g><g><path d="M29,6.4c-3.2,0-6.1-1.5-8-3.9h0c-1.9,2.4-4.8,3.9-8,3.9c-2.8,0-5.4-1.2-8.1-3v23.8c0,0,2.3,8.5,16.1,12.3 c13.8-3.9,16.1-12.3,16.1-12.3V3.3C34.4,5.2,31.9,6.4,29,6.4z" class="st4"/><polygon points="29 17 24.2 17 24.2 12.2 17.8 12.2 17.8 17 13 17 13 23.4 17.8 23.4 17.8 28.3 24.2 28.3 24.2 23.4 29 23.4" class="st2"/></g></g></g></g></g></svg>