<svg xmlns="http://www.w3.org/2000/svg" xmlns:xlink="http://www.w3.org/1999/xlink" id="Layer_1" x="0" y="0" version="1.1" viewBox="0 0 30 30" xml:space="preserve" style="enable-background:new 0 0 30 30"><style type="text/css">.st61{fill:#bbb}.st62{fill:#ff6434}</style><g><g><g><g><polygon points="23 26.2 23 18.9 25.4 18.9 25.4 28.7 3.4 28.7 3.4 18.9 5.9 18.9 5.9 26.2" class="st61"/><path d="M8.6,18.2l11.9,2.5l0.5-2.4L9.1,15.9L8.6,18.2z M10.2,12.5l11.1,5.2l1-2.2l-11.1-5.2L10.2,12.5z M13.2,7.1 l9.4,7.8l1.6-1.9l-9.4-7.8L13.2,7.1z M19.3,1.3l-2,1.5l7.3,9.8l2-1.5L19.3,1.3z M8.3,23.8h12.2v-2.4H8.3V23.8z" class="st62"/></g></g></g></g></svg>