<svg xmlns="http://www.w3.org/2000/svg" xmlns:xlink="http://www.w3.org/1999/xlink" id="Layer_1" x="0" y="0" version="1.1" viewBox="0 0 100 72" xml:space="preserve" style="enable-background:new 0 0 100 72"><style type="text/css">.st1{fill:#b0c3c6}.st4{fill:none}.st35,.st4,.st6{stroke:#b0c3c6;stroke-width:2;stroke-miterlimit:10}.st6{fill:none;stroke-linejoin:round}.st35{fill:#fff}</style><g><polygon points="41.9 16.4 24 16.4 31.8 24.2 24 32 41.9 32 34.1 24.2" class="st1"/><polygon points="18.9 44.1 2.1 44.1 2.1 34 10.5 27.3 18.9 34" class="st1"/><g><path d="M46.7,61.8c-4.6,0-10.8,0-11.6,0c-4.5,0-8.1-3.6-8.1-8.1c0-3.3,1.9-6.1,4.7-7.4c-0.1-0.7-0.1-1.4-0.1-2.1 c0-9.7,7.8-17.5,17.5-17.5c7.1,0,13.1,4.2,15.9,10.2c6.3,0.6,11.3,5.9,11.3,12.4c0,6.9-5.6,12.4-12.4,12.4c-0.8,0-4.5,0-8.2,0" class="st35"/><g><path d="M44.8,52.7l5.8-5.8c0.5-0.5,0.7-0.5,1.2,0l5.8,5.8" class="st4"/></g><polyline points="64.8 67.8 51.1 67.8 51.1 46" class="st6"/></g></g><g><path d="M89,53.8l3.4-3.4c-2-1.4-4.8-1.4-6.8,0L89,53.8z" class="st1"/><path d="M93.9,58.7c1.4-2,1.4-4.8,0-6.8l-3.4,3.4L93.9,58.7z" class="st1"/><path d="M89,56.9l-3.4,3.4c2,1.4,4.8,1.4,6.8,0L89,56.9z" class="st1"/><path d="M84.1,51.9c-1.4,2-1.4,4.8,0,6.8l3.4-3.4L84.1,51.9z" class="st1"/></g></svg>