<svg xmlns="http://www.w3.org/2000/svg" xmlns:xlink="http://www.w3.org/1999/xlink" id="Layer_1" x="0" y="0" version="1.1" viewBox="0 0 42 42" xml:space="preserve" style="enable-background:new 0 0 42 42"><style type="text/css">.st2,.st7{fill:none;stroke:#b0c3c6;stroke-width:2;stroke-miterlimit:10}.st7{fill:#fff;stroke-linejoin:round}</style><g><path d="M33.7,33.7c-7,7-18.4,7-25.5,0s-7-18.4,0-25.5s18.4-7,25.5,0S40.8,26.7,33.7,33.7z M26.4,26.4 c3-3,3-7.8,0-10.8s-7.8-3-10.8,0s-3,7.8,0,10.8S23.4,29.4,26.4,26.4z" class="st2"/><g><path d="M7.3,34.6c-1.1-1.1-2-2.3-2.8-3.6c-0.3-0.4,9.1-5.5,9.1-5.5c0.3,0.6,0.8,1.1,1.2,1.6c0.5,0.5,1,0.9,1.6,1.3 c0,0-5,9.4-5.4,9.2C9.7,36.7,8.4,35.7,7.3,34.6L7.3,34.6z" class="st7"/><path d="M34.7,7.4c1.1,1.1,2,2.3,2.8,3.6c0.3,0.4-9.1,5.5-9.1,5.5c-0.3-0.6-0.8-1.1-1.2-1.6c-0.5-0.5-1-0.9-1.6-1.3 c0,0,5-9.4,5.4-9.2C32.3,5.3,33.6,6.3,34.7,7.4L34.7,7.4z" class="st7"/></g><g><path d="M7.4,7.3c1.1-1.1,2.3-2,3.6-2.8c0.4-0.3,5.5,9.1,5.5,9.1c-0.6,0.3-1.1,0.8-1.6,1.2c-0.5,0.5-0.9,1-1.3,1.6 c0,0-9.4-5-9.2-5.4C5.3,9.7,6.3,8.4,7.4,7.3L7.4,7.3z" class="st7"/><path d="M34.6,34.7c-1.1,1.1-2.3,2-3.6,2.8c-0.4,0.3-5.5-9.1-5.5-9.1c0.6-0.3,1.1-0.8,1.6-1.2c0.5-0.5,0.9-1,1.3-1.6 c0,0,9.4,5,9.2,5.4C36.7,32.3,35.7,33.6,34.6,34.7L34.6,34.7z" class="st7"/></g></g></svg>